<?xml version="1.0" encoding="UTF-8"?>
<svg version="1.1" xmlns="http://www.w3.org/2000/svg" width="500" height="195">
<path d="M0 0 C165 0 330 0 500 0 C500 64.35 500 128.7 500 195 C335 195 170 195 0 195 C0 130.65 0 66.3 0 0 Z " fill="#FDFCFC" transform="translate(0,0)"/>
<path d="M0 0 C1.70928629 0.03740033 3.42012613 0.01296778 5.12890625 -0.04296875 C6.16466797 -0.06423828 7.20042969 -0.08550781 8.26757812 -0.10742188 C10.43718504 -0.16015091 12.6065376 -0.22494573 14.77539062 -0.30273438 C21.55336468 -0.41563092 27.24974042 0.13261914 33 4 C35.50304378 7.75456567 35.45280074 9.54745934 35 14 C30.53268916 24.2109962 16.67942935 29.10827067 7 33 C6.34 33 5.68 33 5 33 C7.36131994 46.15943927 14.68738006 52.33312714 25.07543945 59.81469727 C29.19263156 62.91599903 29.19263156 62.91599903 34 64 C36.17701354 62.7039453 38.0670633 61.40847255 40.0625 59.875 C52.77691681 50.60021482 65.18424088 46.65029627 81 48 C86.09345723 49.223049 88.98546931 51.5299766 91.9375 55.8125 C94.02962613 59.55445713 94.73402128 62.74434041 95 67 C95.65355469 66.00419922 95.65355469 66.00419922 96.3203125 64.98828125 C102.999202 55.08559877 102.999202 55.08559877 108 52 C111.22932403 52 113.0400873 52.29485086 115.6484375 54.2109375 C118.53703102 58.03456708 117.52928052 63.46733171 117 68 C116.16587577 70.51364464 115.15459372 72.75687958 113.953125 75.11328125 C112.79835118 77.39916549 112.33332947 79.46669604 112 82 C111.67 84.31 111.34 86.62 111 89 C137.4 89 163.8 89 191 89 C191 89.66 191 90.32 191 91 C189.41266304 91.0154612 189.41266304 91.0154612 187.79325867 91.03123474 C177.83130517 91.1288968 167.86941514 91.23162407 157.90756512 91.33933926 C152.78581084 91.39455602 147.66405085 91.4479741 142.54223633 91.49731445 C137.60147387 91.5449763 132.66078136 91.59731988 127.72010231 91.65294075 C125.83303374 91.67335603 123.945946 91.69207048 122.05884361 91.70907402 C119.42026194 91.73313625 116.78181256 91.76318844 114.14331055 91.79467773 C113.3592836 91.8004332 112.57525665 91.80618866 111.76747131 91.81211853 C108.58884044 91.85537429 106.03725341 91.9875822 103 93 C101.56605523 93.09179741 100.12828473 93.13066539 98.69140625 93.1328125 C97.44713867 93.13474609 97.44713867 93.13474609 96.17773438 93.13671875 C94.88319336 93.13091797 94.88319336 93.13091797 93.5625 93.125 C92.70333984 93.12886719 91.84417969 93.13273437 90.95898438 93.13671875 C90.12818359 93.13542969 89.29738281 93.13414063 88.44140625 93.1328125 C87.68545166 93.13168457 86.92949707 93.13055664 86.15063477 93.12939453 C84 93 84 93 82.28003311 92.50180149 C79.27693958 91.84086512 76.44465219 91.85844626 73.36883545 91.84178162 C72.70388227 91.83684364 72.03892909 91.83190566 71.35382581 91.82681805 C69.12748791 91.81146981 66.90117879 91.80308971 64.67480469 91.79467773 C63.07817329 91.78509711 61.48154443 91.77508691 59.88491821 91.76467896 C55.55059873 91.73764385 51.21626838 91.71662672 46.88191128 91.69667697 C42.35218258 91.67480884 37.82248734 91.64742419 33.29278564 91.62062073 C24.71518989 91.57070505 16.13757554 91.52576203 7.55994344 91.48259836 C-2.20540278 91.43321639 -11.97071541 91.37830181 -21.73602915 91.32291877 C-41.82398815 91.20911599 -61.91197921 91.10227322 -82 91 C-82 90.34 -82 89.68 -82 89 C-69.625 88.505 -69.625 88.505 -57 88 C-62.84500229 84.49299862 -66.37167069 84.26544546 -73 84 C-73.98444092 83.95117676 -73.98444092 83.95117676 -74.98876953 83.90136719 C-77.11748467 83.80377849 -79.24474852 83.74087205 -81.375 83.6875 C-82.05280518 83.65760986 -82.73061035 83.62771973 -83.42895508 83.59692383 C-88.33151447 83.54040492 -90.4185612 84.79189139 -94 88 C-94.99 88 -95.98 88 -97 88 C-96.80969425 84.57449642 -96.19347397 83.20452963 -93.8125 80.6875 C-85.98060864 76.02968451 -72.6595655 79.23949533 -64 80 C-67.36343221 66.17985914 -70.92353218 52.8164017 -77.06616211 39.94067383 C-79.46027674 34.81912671 -81.38200202 29.75687776 -81 24 C-78.31907309 21.31907309 -76.60832637 21.61329743 -72.875 21.375 C-71.77929688 21.30023438 -70.68359375 21.22546875 -69.5546875 21.1484375 C-68.71164063 21.09945312 -67.86859375 21.05046875 -67 21 C-67.33257812 20.24976562 -67.66515625 19.49953125 -68.0078125 18.7265625 C-69.33674554 15.07461265 -68.96788996 12.73328984 -68 9 C-64.49227576 5.33535125 -59.64168724 4.56561303 -54.875 3.4375 C-53.96282715 3.22134033 -53.0506543 3.00518066 -52.11083984 2.7824707 C-12.09927445 -6.04963722 -12.09927445 -6.04963722 0 0 Z " fill="#EFE1CA" transform="translate(267,18)"/>
<path d="M0 0 C-0.42152344 0.48210937 -0.84304688 0.96421875 -1.27734375 1.4609375 C-1.82519531 2.09257813 -2.37304688 2.72421875 -2.9375 3.375 C-3.75541016 4.31472656 -3.75541016 4.31472656 -4.58984375 5.2734375 C-6.06958624 6.95632334 -6.06958624 6.95632334 -7 9 C-6.48050781 8.48308594 -5.96101563 7.96617188 -5.42578125 7.43359375 C-4.72839844 6.77488281 -4.03101563 6.11617187 -3.3125 5.4375 C-2.62800781 4.77621094 -1.94351563 4.11492187 -1.23828125 3.43359375 C1 2 1 2 3.76953125 2.28515625 C4.50558594 2.52105469 5.24164063 2.75695312 6 3 C4.8553125 3.99 4.8553125 3.99 3.6875 5 C1.41189962 7.23085543 0.42711677 9.16916884 -0.5625 12.1875 C-1.79832566 15.84005138 -1.79832566 15.84005138 -3.8125 17.4375 C-6.52593502 18.13524043 -9.22457737 18.62153328 -12 19 C-11.505 19.99 -11.505 19.99 -11 21 C-10.505 21.99 -10.505 21.99 -10 23 C-7.57968302 23.35539404 -7.57968302 23.35539404 -4.75 23.4375 C-0.30162218 23.7535992 2.30981163 24.39516115 6 27 C8.69254991 27.70670728 8.69254991 27.70670728 11 28 C11 28.99 11 29.98 11 31 C12.65 30.01 14.3 29.02 16 28 C15.07316406 27.73445313 14.14632812 27.46890625 13.19140625 27.1953125 C11.39509766 26.66550781 11.39509766 26.66550781 9.5625 26.125 C8.36753906 25.77695313 7.17257812 25.42890625 5.94140625 25.0703125 C3 24 3 24 2 22 C1.67 22 1.34 22 1 22 C-0.6879941 21.83841424 -2.37541777 21.67084377 -4.0625 21.5 C-4.98160156 21.4071875 -5.90070313 21.314375 -6.84765625 21.21875 C-7.55792969 21.1465625 -8.26820313 21.074375 -9 21 C-8.67 20.34 -8.34 19.68 -8 19 C-7.030625 18.855625 -6.06125 18.71125 -5.0625 18.5625 C-4.051875 18.376875 -3.04125 18.19125 -2 18 C-0.0549 15.08235 0.45276317 13.37462715 1 10 C1.66 10 2.32 10 3 10 C3 9.34 3 8.68 3 8 C3.639375 8.165 4.27875 8.33 4.9375 8.5 C10.34608243 9.38303387 15.70413774 9.5131035 21 8 C21.99 9.485 21.99 9.485 23 11 C24.32796291 11.35412344 25.66216607 11.68521554 27 12 C29.25 13.4375 29.25 13.4375 31 15 C31 15.66 31 16.32 31 17 C30.01 17.66 29.02 18.32 28 19 C30.68700803 17.7284039 33.02938825 16.34177857 35.390625 14.5390625 C36.33228516 13.83136719 36.33228516 13.83136719 37.29296875 13.109375 C38.58397842 12.13016607 39.87308786 11.14844609 41.16015625 10.1640625 C49.97855848 3.55475085 60.65651137 -1.91974232 72 -1 C72 0.32 72 1.64 72 3 C71.15179688 3.20753906 70.30359375 3.41507812 69.4296875 3.62890625 C57.9266053 6.65004542 47.84257409 11.24064189 38 18 C41.21745912 18 43.55368818 15.8829978 46.1875 14.1875 C55.38341814 8.31024848 65.77240249 3.29506853 77 5 C80.89004524 7.01706049 83.84625296 9.14592635 86 13 C86.165 14.03125 86.33 15.0625 86.5 16.125 C86.665 17.07375 86.83 18.0225 87 19 C87.99 19.66 88.98 20.32 90 21 C88.68 21 87.36 21 86 21 C89 22.33333333 89 22.33333333 92 21 C92.17942163 24.94727588 92.09350689 27.5980513 90 31 C90.66 31 91.32 31 92 31 C92.66 29.02 93.32 27.04 94 25 C94.66 25.33 95.32 25.66 96 26 C95.01 27.98 94.02 29.96 93 32 C96.01327566 30.49336217 96.61056618 27.96833589 98 25 C99.27351308 27.54702616 98.80191925 28.4282945 98.0625 31.125 C97.86785156 31.84945312 97.67320312 32.57390625 97.47265625 33.3203125 C97.23869141 34.15175781 97.23869141 34.15175781 97 35 C94.31222198 35.0544207 91.62556788 35.09387266 88.9375 35.125 C88.18533203 35.14175781 87.43316406 35.15851563 86.65820312 35.17578125 C81.70672291 35.21865121 77.69585549 34.58399375 73 33 C74.24976756 36.65316671 74.67098753 37.78065836 78 40 C25.2 40 -27.6 40 -82 40 C-82 39.67 -82 39.34 -82 39 C-80.8039917 38.98018066 -79.6079834 38.96036133 -78.37573242 38.93994141 C-73.94192306 38.86391728 -69.50844326 38.77519503 -65.07495117 38.68261719 C-63.15542096 38.64431423 -61.23581865 38.60946367 -59.31616211 38.578125 C-56.5581687 38.53250298 -53.80067223 38.4745042 -51.04296875 38.4140625 C-49.75376778 38.39673569 -49.75376778 38.39673569 -48.43852234 38.37905884 C-47.63791885 38.35918915 -46.83731537 38.33931946 -46.01245117 38.31884766 C-44.95655037 38.29886215 -44.95655037 38.29886215 -43.87931824 38.2784729 C-41.66902536 38.08755815 -41.66902536 38.08755815 -39 36 C-37.0103005 35.60986284 -35.00980131 35.26797351 -33 35 C-33 34.34 -33 33.68 -33 33 C-33.68964844 33.28875 -34.37929687 33.5775 -35.08984375 33.875 C-41.09337408 36.24676507 -46.5086451 38.13175927 -53 37 C-56.0625 35.5 -56.0625 35.5 -58 34 C-57.67 32.02 -57.34 30.04 -57 28 C-57.99 28 -58.98 28 -60 28 C-60.61316414 20.64203027 -58.4800307 16.10929222 -53.90625 10.375 C-46.98465376 2.43823631 -46.98465376 2.43823631 -42 0 C-41.34 0.33 -40.68 0.66 -40 1 C-41.09596951 3.95911769 -42.16785499 5.13272255 -44.6875 7.125 C-49.45505318 10.95081428 -54.18929749 16.26829302 -55.51171875 22.35546875 C-55.63321724 24.73766082 -55.63321724 24.73766082 -55 28 C-53.16262173 30.27216848 -53.16262173 30.27216848 -50.3984375 30.1953125 C-49.40070313 30.17210937 -48.40296875 30.14890625 -47.375 30.125 C-46.37210938 30.10695312 -45.36921875 30.08890625 -44.3359375 30.0703125 C-43.17964844 30.03550781 -43.17964844 30.03550781 -42 30 C-42 29.34 -42 28.68 -42 28 C-42.99 28.495 -42.99 28.495 -44 29 C-45.875 29.16796875 -45.875 29.16796875 -48 29.1875 C-49.051875 29.20876953 -49.051875 29.20876953 -50.125 29.23046875 C-52 29 -52 29 -54 27 C-54.74957846 21.62802103 -53.04236438 18.24492057 -50 14 C-47.75 11.5625 -47.75 11.5625 -46 10 C-44.68 10.66 -43.36 11.32 -42 12 C-42 12.66 -42 13.32 -42 14 C-41.38125 14.268125 -40.7625 14.53625 -40.125 14.8125 C-38 16 -38 16 -36 19 C-41.29012667 20.57578241 -46.60204011 21.84941444 -52 23 C-52 23.66 -52 24.32 -52 25 C-50.10174715 24.57312017 -48.20646817 24.13300518 -46.3125 23.6875 C-44.72888672 23.32205078 -44.72888672 23.32205078 -43.11328125 22.94921875 C-39.99767223 21.99929028 -37.63760832 20.90358003 -35 19 C-35 18.34 -35 17.68 -35 17 C-36.78612311 15.19306244 -36.78612311 15.19306244 -39 13.375 C-39.7425 12.74335937 -40.485 12.11171875 -41.25 11.4609375 C-41.8275 10.97882813 -42.405 10.49671875 -43 10 C-42.67 8.68 -42.34 7.36 -42 6 C-37.61105071 9.26720791 -33.24740335 12.54898478 -29 16 C-28.67 15.34 -28.34 14.68 -28 14 C-26.35 14 -24.7 14 -23 14 C-26.03251898 12.87062591 -26.03251898 12.87062591 -29.5 12.625 C-33 12 -33 12 -35 10.75 C-36 9 -36 9 -35.8125 6.4375 C-35 4 -35 4 -33 2 C-30.875 2.375 -30.875 2.375 -29 3 C-29 4.65 -29 6.3 -29 8 C-27.68 7.34 -26.36 6.68 -25 6 C-25 5.34 -25 4.68 -25 4 C-24.01 4 -23.02 4 -22 4 C-20.875 10.625 -20.875 10.625 -22 14 C-20.68 14 -19.36 14 -18 14 C-17.97421875 13.40832031 -17.9484375 12.81664063 -17.921875 12.20703125 C-17.64432755 8.34029058 -17.27670621 5.52020767 -15.4375 2.0625 C-10.72672934 -1.92353671 -5.54935448 -3.12151189 0 0 Z " fill="#D65D73" transform="translate(267,69)"/>
<path d="M0 0 C0.33 0 0.66 0 1 0 C1.33 2.31 1.66 4.62 2 7 C2.804375 7.2475 3.60875 7.495 4.4375 7.75 C7 9 7 9 7.875 10.9375 C8 13 8 13 7 16 C12.7974423 16.24428343 12.7974423 16.24428343 18 14 C17.01 13.38125 16.02 12.7625 15 12.125 C14.01 11.42375 13.02 10.7225 12 10 C12 9.34 12 8.68 12 8 C16.74882981 10.07761304 20.73701971 13.37473332 24.8671875 16.45507812 C29.07309213 19.57733661 29.07309213 19.57733661 34 21 C36.17701354 19.7039453 38.0670633 18.40847255 40.0625 16.875 C52.77691681 7.60021482 65.18424088 3.65029627 81 5 C86.09345723 6.223049 88.98546931 8.5299766 91.9375 12.8125 C94.02962613 16.55445713 94.73402128 19.74434041 95 24 C95.65355469 23.00419922 95.65355469 23.00419922 96.3203125 21.98828125 C102.999202 12.08559877 102.999202 12.08559877 108 9 C111.22932403 9 113.0400873 9.29485086 115.6484375 11.2109375 C118.53703102 15.03456708 117.52928052 20.46733171 117 25 C116.16587577 27.51364464 115.15459372 29.75687958 113.953125 32.11328125 C112.79835118 34.39916549 112.33332947 36.46669604 112 39 C111.67 41.31 111.34 43.62 111 46 C137.4 46 163.8 46 191 46 C191 46.66 191 47.32 191 48 C189.41266304 48.0154612 189.41266304 48.0154612 187.79325867 48.03123474 C177.83130517 48.1288968 167.86941514 48.23162407 157.90756512 48.33933926 C152.78581084 48.39455602 147.66405085 48.4479741 142.54223633 48.49731445 C137.60147387 48.5449763 132.66078136 48.59731988 127.72010231 48.65294075 C125.83303374 48.67335603 123.945946 48.69207048 122.05884361 48.70907402 C119.42026194 48.73313625 116.78181256 48.76318844 114.14331055 48.79467773 C113.3592836 48.8004332 112.57525665 48.80618866 111.76747131 48.81211853 C108.58884044 48.85537429 106.03725341 48.9875822 103 50 C99.89982302 50.22635971 96.79510864 50.18515463 93.6875 50.1875 C92.84509766 50.19974609 92.00269531 50.21199219 91.13476562 50.22460938 C90.31041016 50.22654297 89.48605469 50.22847656 88.63671875 50.23046875 C87.89123779 50.23457764 87.14575684 50.23868652 86.37768555 50.24291992 C84 50 84 50 81.31852722 49.00474548 C77.57510802 47.8713561 74.43488927 47.72117634 70.52587891 47.68115234 C69.44191833 47.66608391 69.44191833 47.66608391 68.33605957 47.65071106 C65.96623472 47.62001482 63.59652214 47.6028821 61.2265625 47.5859375 C59.5760299 47.5672149 57.92550676 47.54764068 56.2749939 47.5272522 C51.94486075 47.47604022 47.61469661 47.43635618 43.28442383 47.39910889 C38.86011151 47.35900048 34.4359269 47.3079394 30.01171875 47.2578125 C21.34123325 47.16118276 12.67068427 47.07673679 4 47 C4 46.67 4 46.34 4 46 C38.65 45.505 38.65 45.505 74 45 C73.01 43.02 73.01 43.02 72 41 C72.66 40.67 73.32 40.34 74 40 C74.84820312 40.29648438 75.69640625 40.59296875 76.5703125 40.8984375 C80.72831723 42.23392421 84.53780124 42.44857158 88.875 42.625 C89.65875 42.66367188 90.4425 42.70234375 91.25 42.7421875 C93.16631367 42.83566622 95.08312319 42.91888495 97 43 C97.33 40.03 97.66 37.06 98 34 C97.01 35.98 96.02 37.96 95 40 C94.34 40 93.68 40 93 40 C93.99 37.03 93.99 37.03 95 34 C93.55802132 35.44197868 92.88213756 37.17691571 92 39 C91.34 39 90.68 39 90 39 C90.33 36.03 90.66 33.06 91 30 C89.35 30.66 87.7 31.32 86 32 C86.2784375 31.0409375 86.2784375 31.0409375 86.5625 30.0625 C86.706875 29.381875 86.85125 28.70125 87 28 C86.67 27.67 86.34 27.34 86 27 C85.34 27.66 84.68 28.32 84 29 C83.97421875 28.32453125 83.9484375 27.6490625 83.921875 26.953125 C83.65514003 21.30476784 83.65514003 21.30476784 81.0625 16.4375 C76.74191302 13.4261818 73.14956196 13.57415567 68 14 C57.08158246 16.10175085 47.19965284 21.98484237 38 28 C38 27.01 38 26.02 38 25 C48.42881899 17.15017798 59.11439038 12.65703271 72 11 C72 9.68 72 8.36 72 7 C57.08644198 9.97222141 46.36327733 14.5700626 34.6809082 24.48071289 C33.17903577 25.72774029 31.59428035 26.87351507 30 28 C29.01 27.67 28.02 27.34 27 27 C28.32 26.34 29.64 25.68 31 25 C31 24.34 31 23.68 31 23 C28.72945605 21.73858669 26.95721392 20.99286899 24.375 20.5625 C22 20 22 20 20 17 C19.01 17.33 18.02 17.66 17 18 C11.96056114 18.40579751 7.58191774 18.36486077 3 16 C3 16.66 3 17.32 3 18 C2.34 18 1.68 18 1 18 C1.061875 18.7425 1.12375 19.485 1.1875 20.25 C0.96070783 23.57628517 0.43044773 24.73158211 -2 27 C-5.1875 27.75 -5.1875 27.75 -8 28 C-0.97217958 29.0390717 -0.97217958 29.0390717 6 28 C5.01 28.99 4.02 29.98 3 31 C7.95 32.65 12.9 34.3 18 36 C18 36.33 18 36.66 18 37 C16.6078125 37.433125 16.6078125 37.433125 15.1875 37.875 C11.90208333 38.8875 11.90208333 38.8875 9 41 C9.66 39.35 10.32 37.7 11 36 C3.74 35.67 -3.52 35.34 -11 35 C-11 34.67 -11 34.34 -11 34 C-5.06 33.505 -5.06 33.505 1 33 C-0.753125 32.71125 -2.50625 32.4225 -4.3125 32.125 C-7.98543749 31.52004559 -9.85426323 31.09715785 -13 29 C-13 28.01 -13 27.02 -13 26 C-7.555 25.01 -7.555 25.01 -2 24 C-1.95875 22.948125 -1.9175 21.89625 -1.875 20.8125 C-0.72809692 15.81527945 0.90224658 14.87714602 5 12 C3.27523089 11.04497842 3.27523089 11.04497842 1 11 C-1.60414714 13.35412766 -1.60414714 13.35412766 -4 16 C-4.99 16.33 -5.98 16.66 -7 17 C-5.55746343 13.63408134 -3.66735273 11.48952921 -1 9 C-1.99 8.34 -2.98 7.68 -4 7 C-2.68 6.67 -1.36 6.34 0 6 C0 4.02 0 2.04 0 0 Z " fill="#D34B68" transform="translate(267,61)"/>
<path d="M0 0 C2.5625 2.0625 2.5625 2.0625 4 5 C3.92030952 9.54235758 3.26305809 12.73694191 0 16 C-0.66 16 -1.32 16 -2 16 C-1.690625 15.46375 -1.38125 14.9275 -1.0625 14.375 C0.17827439 11.6015043 0.5909675 8.99957163 1 6 C-0.63709315 4.31135412 -0.63709315 4.31135412 -3 3 C-6.8355908 3.13523839 -6.8355908 3.13523839 -10 5 C-9.62644594 11.15552121 -7.4594048 16.08184617 -4.875 21.625 C-4.47337646 22.50003174 -4.07175293 23.37506348 -3.65795898 24.27661133 C1.0330238 36.69159933 1.0330238 36.69159933 9 46 C8.70230713 45.40050537 8.40461426 44.80101074 8.09790039 44.18334961 C6.74258214 41.43963074 5.40247418 38.68874304 4.0625 35.9375 C3.35963867 34.52307617 3.35963867 34.52307617 2.64257812 33.08007812 C0.17385782 27.98279232 -1.6301814 23.67317473 -2 18 C0.40243465 20.15344283 1.60244944 21.96874765 2.6875 25 C2.93886719 25.680625 3.19023437 26.36125 3.44921875 27.0625 C4 29 4 29 4 32 C9.93721374 30.40898194 13.97123821 28.91005343 18 24 C19.20272819 21.59454362 19.10071472 20.05003047 19.0625 17.375 C19.05347656 16.55773437 19.04445312 15.74046875 19.03515625 14.8984375 C19.02355469 14.27195312 19.01195312 13.64546875 19 13 C15.35977454 11.92978879 14.35115081 12.27655101 11 14 C8.67504723 14.38749213 6.34148732 14.72982839 4 15 C4 14.01 4 13.02 4 12 C5.7634375 11.5978125 5.7634375 11.5978125 7.5625 11.1875 C10.49181048 10.46937979 12.83289449 9.62663351 15.625 8.375 C19.06011258 6.97550969 21.33725203 6.73199405 25 7 C25 7.66 25 8.32 25 9 C23.68 9 22.36 9 21 9 C21.495 10.485 21.495 10.485 22 12 C22.72865064 19.35656896 21.39847848 23.91624196 16.8125 29.8125 C13.07669663 32.71812484 10.67246478 32.76241704 6 33 C6.70620155 34.65581725 7.44087238 36.29951386 8.1875 37.9375 C8.59355469 38.85402344 8.99960938 39.77054688 9.41796875 40.71484375 C10.80362938 43.24096476 10.80362938 43.24096476 13.55078125 43.69140625 C14.35902344 43.79324219 15.16726562 43.89507812 16 44 C18.1385485 46.1385485 18.42655063 47.13275314 19 50 C19.226875 49.360625 19.45375 48.72125 19.6875 48.0625 C21 46 21 46 23.4375 45.0625 C26 45 26 45 27.75 46.3125 C29 48 29 48 30 50 C31.485 50.495 31.485 50.495 33 51 C30 53 30 53 27 53 C26.67 51.35 26.34 49.7 26 48 C24.68 48.33 23.36 48.66 22 49 C21.67 50.65 21.34 52.3 21 54 C22.90401138 55.90401138 24.33425686 56.93520439 27.046875 57.19921875 C29.03233273 57.1886578 31.0169914 57.09915043 33 57 C33 57.66 33 58.32 33 59 C31.35 59 29.7 59 28 59 C27.67 59.99 27.34 60.98 27 62 C26.31292969 61.44570312 25.62585938 60.89140625 24.91796875 60.3203125 C24.01691406 59.59585938 23.11585938 58.87140625 22.1875 58.125 C21.29417969 57.40570313 20.40085938 56.68640625 19.48046875 55.9453125 C16.96429047 53.92059294 16.96429047 53.92059294 14 52 C14.55550695 55.59905908 15.74887248 56.99909799 18.5625 59.25 C19.20316406 59.77078125 19.84382813 60.2915625 20.50390625 60.828125 C20.99761719 61.21484375 21.49132812 61.6015625 22 62 C21.05796249 64.35509377 20.387842 65.73619756 18.265625 67.1796875 C15.44738901 68.20008329 12.71217318 68.67423452 9.75 69.125 C8.67234375 69.29257813 7.5946875 69.46015625 6.484375 69.6328125 C5.66453125 69.75398438 4.8446875 69.87515625 4 70 C4 69.34 4 68.68 4 68 C4.99 68 5.98 68 7 68 C7.33 67.34 7.66 66.68 8 66 C9.65694085 65.62127066 11.32656552 65.29749946 13 65 C15.00744615 64.35610218 17.00945124 63.69437747 19 63 C18.21625 62.401875 17.4325 61.80375 16.625 61.1875 C14 59 14 59 12 56 C11.34 56 10.68 56 10 56 C9.34 56.99 8.68 57.98 8 59 C7.34 59 6.68 59 6 59 C5.690625 59.78375 5.38125 60.5675 5.0625 61.375 C4 64 4 64 3 66 C2.83329727 69.04173894 2.83329727 69.04173894 3 72 C4.03406673 73.25949049 4.03406673 73.25949049 6.28515625 73.09765625 C7.20167969 73.08605469 8.11820313 73.07445313 9.0625 73.0625 C9.98160156 73.05347656 10.90070313 73.04445313 11.84765625 73.03515625 C12.55792969 73.02355469 13.26820313 73.01195313 14 73 C14 73.66 14 74.32 14 75 C10.30516081 76.18234854 6.85646386 76.2804701 3 76 C1.0625 75 1.0625 75 0 73 C-0.88843743 68.47704582 -0.7195324 66.28280272 1.546875 62.2421875 C5.47560861 56.65364008 9.67319297 52.23970355 15 48 C15.495 47.01 15.495 47.01 16 46 C9.10218932 46.85025097 5.58376434 51.74757303 1.4453125 56.95703125 C-2.01382136 61.98198606 -3.17708181 67.00620784 -4 73 C-3.01 73 -2.02 73 -1 73 C-1 74.98 -1 76.96 -1 79 C3.36464604 81.46740125 7.07990462 81.55653538 12 81 C14.76574192 80.17219143 17.32534141 79.10675528 20 78 C20.99 78 21.98 78 23 78 C23 78.66 23 79.32 23 80 C28.94 80 34.88 80 41 80 C41 80.33 41 80.66 41 81 C33.08 81.33 25.16 81.66 17 82 C32.84 82.495 32.84 82.495 49 83 C49 83.33 49 83.66 49 84 C24.25 84 -0.5 84 -26 84 C-26 83.67 -26 83.34 -26 83 C-13.625 82.505 -13.625 82.505 -1 82 C-6.84500229 78.49299862 -10.37167069 78.26544546 -17 78 C-17.98444092 77.95117676 -17.98444092 77.95117676 -18.98876953 77.90136719 C-21.11748467 77.80377849 -23.24474852 77.74087205 -25.375 77.6875 C-26.05280518 77.65760986 -26.73061035 77.62771973 -27.42895508 77.59692383 C-32.33151447 77.54040492 -34.4185612 78.79189139 -38 82 C-38.99 82 -39.98 82 -41 82 C-40.80969425 78.57449642 -40.19347397 77.20452963 -37.8125 74.6875 C-29.98060864 70.02968451 -16.6595655 73.23949533 -8 74 C-11.36343221 60.17985914 -14.92353218 46.8164017 -21.06616211 33.94067383 C-23.46027674 28.81912671 -25.38200202 23.75687776 -25 18 C-22.31907309 15.31907309 -20.60832637 15.61329743 -16.875 15.375 C-15.77929688 15.30023438 -14.68359375 15.22546875 -13.5546875 15.1484375 C-12.71164063 15.09945312 -11.86859375 15.05046875 -11 15 C-11.33257812 14.24976563 -11.66515625 13.49953125 -12.0078125 12.7265625 C-13.33674554 9.07461265 -12.96788996 6.73328984 -12 3 C-8.96335135 -0.76544433 -4.50925669 -0.9682453 0 0 Z " fill="#D34D68" transform="translate(211,24)"/>
<path d="M0 0 C1.70928629 0.03740033 3.42012613 0.01296778 5.12890625 -0.04296875 C6.16466797 -0.06423828 7.20042969 -0.08550781 8.26757812 -0.10742188 C10.43718504 -0.16015091 12.6065376 -0.22494573 14.77539062 -0.30273438 C21.55336468 -0.41563092 27.24974042 0.13261914 33 4 C35.50304378 7.75456567 35.45280074 9.54745934 35 14 C30.53268916 24.2109962 16.67942935 29.10827067 7 33 C6.34 33 5.68 33 5 33 C6.59151946 40.155368 8.46362032 45.23757176 13 51 C13 51.66 13 52.32 13 53 C14.96147874 54.38938077 16.96166576 55.7260411 19 57 C18.505 57.99 18.505 57.99 18 59 C14.08234111 59.81309902 10.82092412 60.37553268 7 59 C7 57.02 7 55.04 7 53 C6.030625 52.690625 5.06125 52.38125 4.0625 52.0625 C1 50 1 50 0.30859375 47.90234375 C-0.48466258 41.72699387 -0.48466258 41.72699387 2 38 C2.27401018 35.97078331 2.27401018 35.97078331 2.1953125 33.76953125 C2.18564453 32.56586914 2.18564453 32.56586914 2.17578125 31.33789062 C2.15902344 30.50451172 2.14226562 29.67113281 2.125 28.8125 C2.11597656 27.96751953 2.10695313 27.12253906 2.09765625 26.25195312 C2.07410703 24.16784757 2.03823647 22.08388783 2 20 C1.45730469 20.32871094 0.91460937 20.65742187 0.35546875 20.99609375 C-2.50361372 22.21464134 -4.59369489 22.16576452 -7.6875 22.0625 C-9.4576347 22.00857537 -11.22916265 21.97951097 -13 22 C-13.495 22.495 -13.495 22.495 -14 23 C-16.30993382 23.12557162 -18.62418536 23.17575729 -20.9375 23.1875 C-22.20464844 23.20167969 -23.47179687 23.21585938 -24.77734375 23.23046875 C-28 23 -28 23 -30 21 C-29.6730244 18.38419521 -29.17960932 16.35921863 -28 14 C-25.19921875 13.4375 -25.19921875 13.4375 -21.6875 13 C-17.61380003 12.48907682 -14.62511057 11.85332851 -11 10 C-8.421875 9.5859375 -8.421875 9.5859375 -5.75 9.375 C-4.41195312 9.26285156 -4.41195312 9.26285156 -3.046875 9.1484375 C-2.37140625 9.09945313 -1.6959375 9.05046875 -1 9 C-0.95745644 7.00045254 -0.95919217 4.99958364 -1 3 C-2.88733004 1.11266996 -6.09071033 1.85319144 -8.6015625 1.8515625 C-16.57701525 1.87705848 -24.44442657 2.53424604 -32.375 3.375 C-34.30666016 3.56449219 -34.30666016 3.56449219 -36.27734375 3.7578125 C-41.70651259 4.31465033 -46.98776494 4.90706255 -52.2890625 6.2265625 C-53.51367188 6.48179688 -54.73828125 6.73703125 -56 7 C-56.66 6.34 -57.32 5.68 -58 5 C-43.91727038 0.21280148 -13.94256552 -6.97128276 0 0 Z " fill="#D65771" transform="translate(267,18)"/>
<path d="M0 0 C2 2 2 2 2.1875 5.0625 C2 8 2 8 1 9 C-1.38548 9.24677379 -3.77009692 9.38348259 -6.1640625 9.5234375 C-9.15835497 9.89381314 -9.15835497 9.89381314 -12.25 11.54296875 C-16.62027765 13.52783785 -20.66730198 13.17253445 -25.375 12.9375 C-31.72305608 12.76317294 -36.60598445 12.8396122 -42.265625 16.04296875 C-44.73618052 17.40622574 -47.22166191 17.71504225 -50 18 C-49.67 18.33 -49.34 18.66 -49 19 C-47.04330462 18.5356994 -45.08765634 18.06504169 -43.14453125 17.546875 C-40.45313422 16.86054425 -37.74539727 16.41180959 -35 16 C-33.24771299 19.50457402 -33.44921804 23.17582069 -34 27 C-35.82754899 31.11986259 -38.23734093 33.50744935 -42 35.9375 C-45 37 -45 37 -50 37 C-51.65 32.71 -53.3 28.42 -55 24 C-54.17366275 29.35739589 -54.17366275 29.35739589 -52.1875 33.91015625 C-51.83429688 34.59013672 -51.48109375 35.27011719 -51.1171875 35.97070312 C-50.74851563 36.66099609 -50.37984375 37.35128906 -50 38.0625 C-45.57448287 46.39516075 -45.57448287 46.39516075 -45 51 C-48.62728971 49.79090343 -48.78525017 49.08782341 -50.48828125 45.80078125 C-50.94485107 44.92744141 -51.4014209 44.05410156 -51.87182617 43.15429688 C-52.34724854 42.21650391 -52.8226709 41.27871094 -53.3125 40.3125 C-54.04400269 38.8884082 -54.04400269 38.8884082 -54.7902832 37.43554688 C-65.66499155 16.05881191 -65.66499155 16.05881191 -65 10 C-63.375 8.125 -63.375 8.125 -61 7 C-57.84001386 7.12897903 -55.76317137 7.5322498 -53.0625 9.1875 C-52 11 -52 11 -52.125 13.9375 C-52.98863239 16.96021338 -53.93738988 18.66835378 -56 21 C-53.04326904 18.61553955 -52.06062316 17.22632646 -51.0625 13.5 C-50.69520746 10.03098409 -50.69520746 10.03098409 -52.4375 7.5625 C-52.953125 7.046875 -53.46875 6.53125 -54 6 C-46.20698867 2.96938448 -38.67194432 2.07243034 -30.375 1.3125 C-29.11042969 1.18294922 -27.84585938 1.05339844 -26.54296875 0.91992188 C-17.79045665 0.07678998 -8.79094145 -0.72295369 0 0 Z " fill="#F0E6CD" transform="translate(265,19)"/>
<path d="M0 0 C0 1.32 0 2.64 0 4 C-0.62342285 4.25579834 -1.2468457 4.51159668 -1.88916016 4.77514648 C-28.78371067 15.03658541 -28.78371067 15.03658541 -48.3125 35.04296875 C-50.10577379 40.14768562 -50.86683733 45.06931685 -48.625 50.0625 C-47.78114651 51.06863301 -46.9285452 52.0714548 -46 53 C-44.00041636 53.04080783 -41.99954746 53.04254356 -40 53 C-40.06960937 52.443125 -40.13921875 51.88625 -40.2109375 51.3125 C-40.62276958 45.50762875 -39.61876386 42.28852615 -35.83203125 37.86328125 C-27.79043152 29.68451137 -27.79043152 29.68451137 -21.25 29.4375 C-18.66693816 29.6471786 -16.86963603 30.05087374 -14.4375 31 C-12.57481041 33.59156812 -12.44128285 35.80696881 -12.625 38.953125 C-13.82818435 45.52050625 -19.80926221 50.29745301 -25 54 C-31.73790258 57.81032302 -38.32266996 59.00191571 -46 58 C-50.30272894 56.46331109 -52.65604704 54.89991033 -55 51 C-56.13042748 43.30087228 -55.56928494 36.38053303 -51 30 C-50.34064453 29.05447266 -50.34064453 29.05447266 -49.66796875 28.08984375 C-39.85998834 15.60018768 -16.16912665 0 0 0 Z " fill="#D34866" transform="translate(150,95)"/>
<path d="M0 0 C1.8125 1.9375 1.8125 1.9375 2.4375 5.25 C1.39525529 11.3992438 -2.17912037 14.32422124 -7 17.8125 C-8.051875 18.51375 -9.10375 19.215 -10.1875 19.9375 C-9.69378906 20.27523437 -9.20007813 20.61296875 -8.69140625 20.9609375 C-8.05074219 21.40695313 -7.41007812 21.85296875 -6.75 22.3125 C-6.11191406 22.75335938 -5.47382812 23.19421875 -4.81640625 23.6484375 C-2.31347981 25.62917066 -2.19620431 26.86496412 -1.8125 30.0625 C-2.46705865 36.82627271 -5.95234958 41.17239791 -11 45.5625 C-22.99141264 54.33474146 -37.66415246 56.69767522 -52.1875 55.9375 C-57.67778961 54.97887801 -60.89294427 53.52991102 -64.1875 48.9375 C-64.93442935 44.72753455 -65.1478654 42.52810519 -62.9375 38.8671875 C-61.43876444 37.01624909 -60.06786604 35.40153196 -58.1875 33.9375 C-57.1975 33.9375 -56.2075 33.9375 -55.1875 33.9375 C-55.59498497 36.87139179 -55.92013311 38.60843305 -57.8125 40.9375 C-59.41003395 42.8858233 -59.41003395 42.8858233 -59.3125 45.5 C-58.32720521 48.22488039 -58.32720521 48.22488039 -55.25 49.75 C-44.40377315 53.54727057 -31.09109048 49.79194624 -20.82421875 45.546875 C-15.50605769 42.81223197 -11.17341158 40.18858589 -8.1875 34.9375 C-7.81667436 31.88570518 -7.8820494 28.99200604 -8.1875 25.9375 C-13.82788763 23.89735979 -18.29909122 23.75022409 -24.1875 24.9375 C-25.1775 25.4325 -25.1775 25.4325 -26.1875 25.9375 C-28.5204866 25.97772391 -30.85456666 25.98070247 -33.1875 25.9375 C-32.9375 23.5625 -32.9375 23.5625 -32.1875 20.9375 C-29.27998228 19.03792175 -26.98131178 18.75431717 -23.5625 18.6875 C-17.3880408 18.18588219 -13.16549463 15.44412276 -8.1875 11.9375 C-7.15625 11.215625 -6.125 10.49375 -5.0625 9.75 C-4.44375 9.151875 -3.825 8.55375 -3.1875 7.9375 C-3.1875 6.9475 -3.1875 5.9575 -3.1875 4.9375 C-11.44900013 4.45779999 -18.00681084 5.08674305 -25.7265625 8.16015625 C-28.1875 8.9375 -28.1875 8.9375 -31.1875 7.9375 C-30.17485543 5.23900021 -29.53763765 4.13270949 -26.98046875 2.70703125 C-25.69076172 2.23330078 -25.69076172 2.23330078 -24.375 1.75 C-23.52292969 1.42644531 -22.67085937 1.10289063 -21.79296875 0.76953125 C-14.77673269 -1.47103589 -7.07473954 -2.35824651 0 0 Z " fill="#D44B69" transform="translate(94.1875,95.0625)"/>
<path d="M0 0 C4.2384375 -0.0928125 4.2384375 -0.0928125 8.5625 -0.1875 C9.43849854 -0.21481201 10.31449707 -0.24212402 11.21704102 -0.27026367 C16.57978718 -0.32658613 20.28040068 0.39419806 25 3 C27 6 27 6 26.9375 9.4375 C25.82623229 13.66031728 24.65436216 14.7377758 21 17 C20.01 17.33 19.02 17.66 18 18 C18.721875 18.309375 19.44375 18.61875 20.1875 18.9375 C23.63653673 21.4667936 24.86192497 24.04551897 26.69140625 27.84375 C28.15125952 30.24923957 29.66863938 31.46218919 32 33 C27.85998825 33.2435301 24.15250375 33.38416792 20.1875 32.0625 C16.91831022 28.98012106 15.43234969 25.21702952 14 21 C14 20.34 14 19.68 14 19 C12.35 18.67 10.7 18.34 9 18 C9 22.95 9 27.9 9 33 C6.03 33 3.06 33 0 33 C0 22.11 0 11.22 0 0 Z " fill="#D24463" transform="translate(368,121)"/>
<path d="M0 0 C2.97 0 5.94 0 9 0 C9 5.28 9 10.56 9 16 C12.96 16 16.92 16 21 16 C21 10.72 21 5.44 21 0 C23.97 0 26.94 0 30 0 C30 10.89 30 21.78 30 33 C27.03 33 24.06 33 21 33 C21 27.72 21 22.44 21 17 C17.04 17 13.08 17 9 17 C9 22.28 9 27.56 9 33 C6.03 33 3.06 33 0 33 C0 22.11 0 11.22 0 0 Z " fill="#D24665" transform="translate(239,121)"/>
<path d="M0 0 C1.32 0.33 2.64 0.66 4 1 C2.80100302 4.0831351 1.52299523 7.06279492 0 10 C1.23556641 9.51466797 1.23556641 9.51466797 2.49609375 9.01953125 C6.41488262 7.87928164 10.01999 7.6686274 14.0625 7.6875 C14.75666016 7.67138672 15.45082031 7.65527344 16.16601562 7.63867188 C20.64885086 7.63441467 23.41847032 8.29906661 27 11 C29.35020498 13.35020498 29.31914802 13.91909622 29.375 17.125 C29.14525681 25.10219407 25.20844533 30.66024011 19.5390625 36.04296875 C8.166205 44.80881737 -4.74920649 48.44923324 -19 47 C-22.40715072 45.69618059 -24.43444102 43.56555898 -27 41 C-27.125 37.375 -27.125 37.375 -27 34 C-25.02 33.505 -25.02 33.505 -23 33 C-22.07226562 35.63671875 -22.07226562 35.63671875 -21.14453125 38.2734375 C-19.49703616 40.75873727 -17.82063132 41.1631991 -15 42 C-4.7754747 43.55661843 5.07546029 40.01220323 13.4375 34.1875 C17.83501002 30.60054797 21.45974974 26.08050051 24 21 C24.33333333 18 24.33333333 18 24 15 C18.78484428 11.52322952 12.24483611 12.37211505 6.234375 13.53515625 C2.22824349 14.6595766 -1.30079596 16.05511925 -4.875 18.1875 C-8 20 -8 20 -12 20 C-11.59611619 14.66666257 -8.57364729 11.27897805 -5.4375 7.1875 C-4.91736328 6.49462891 -4.39722656 5.80175781 -3.86132812 5.08789062 C-2.58200846 3.38604337 -1.29203986 1.69221036 0 0 Z " fill="#D34766" transform="translate(176,105)"/>
<path d="M0 0 C2.5 2.125 2.5 2.125 3.5 4.125 C3.5 7.755 3.5 11.385 3.5 15.125 C-11.68 15.125 -26.86 15.125 -42.5 15.125 C-40.21389801 10.55279603 -38.62013309 9.63518305 -34.3125 7.0625 C-33.20519531 6.39089844 -32.09789062 5.71929687 -30.95703125 5.02734375 C-21.86016385 0.02149694 -9.93887196 -5.32439569 0 0 Z " fill="#FCF7F8" transform="translate(347.5,75.875)"/>
<path d="M0 0 C1.9375 1.1875 1.9375 1.1875 3 3 C2.81878333 7.25859163 1.81307141 9.82000623 -1 13 C-0.38125 12.38125 0.2375 11.7625 0.875 11.125 C2.25 9.75 3.625 8.375 5 7 C5.33 8.32 5.66 9.64 6 11 C7.19625 10.690625 8.3925 10.38125 9.625 10.0625 C13.06402439 9.19968427 16.49136573 8.52629514 20 8 C21.75228701 11.50457402 21.55078196 15.17582069 21 19 C19.17245101 23.11986259 16.76265907 25.50744935 13 27.9375 C10 29 10 29 5 29 C3.35 24.71 1.7 20.42 0 16 C0.82633725 21.35739589 0.82633725 21.35739589 2.8125 25.91015625 C3.16570312 26.59013672 3.51890625 27.27011719 3.8828125 27.97070312 C4.25148437 28.66099609 4.62015625 29.35128906 5 30.0625 C9.42551713 38.39516075 9.42551713 38.39516075 10 43 C6.37271029 41.79090343 6.21474983 41.08782341 4.51171875 37.80078125 C4.05514893 36.92744141 3.5985791 36.05410156 3.12817383 35.15429688 C2.65275146 34.21650391 2.1773291 33.27871094 1.6875 32.3125 C0.95599731 30.8884082 0.95599731 30.8884082 0.2097168 29.43554688 C-10.66499155 8.05881191 -10.66499155 8.05881191 -10 2 C-6.89573811 -1.58184064 -4.35794704 -1.29811188 0 0 Z " fill="#E9C4B7" transform="translate(210,27)"/>
<path d="M0 0 C0.79921875 0.00902344 1.5984375 0.01804688 2.421875 0.02734375 C3.02515625 0.03894531 3.6284375 0.05054688 4.25 0.0625 C4.58 1.3825 4.91 2.7025 5.25 4.0625 C2.775 3.0725 2.775 3.0725 0.25 2.0625 C1.075 2.84625 1.9 3.63 2.75 4.4375 C5.25 7.0625 5.25 7.0625 5.25 9.0625 C5.91 9.0625 6.57 9.0625 7.25 9.0625 C7.25 10.0525 7.25 11.0425 7.25 12.0625 C7.91 12.0625 8.57 12.0625 9.25 12.0625 C12.52323474 19.08092425 13.95590493 25.32779967 14.25 33.0625 C14.58 30.7525 14.91 28.4425 15.25 26.0625 C15.91 26.0625 16.57 26.0625 17.25 26.0625 C18.6875 28.5625 18.6875 28.5625 19.25 32.0625 C17.76547142 34.19187069 16.02938785 35.91092442 14.2109375 37.76171875 C10.87787094 41.67242832 9.13878069 46.32749218 7.25 51.0625 C4.56589629 48.37839629 4.56765508 46.28741002 3.8125 42.5625 C1.72482116 33.1623572 -2.1628196 24.54133792 -6.04077148 15.76171875 C-6.51716064 14.67890625 -6.9935498 13.59609375 -7.484375 12.48046875 C-7.91975586 11.50875732 -8.35513672 10.5370459 -8.80371094 9.53588867 C-9.75 7.0625 -9.75 7.0625 -9.75 4.0625 C-7.9375 4.25 -7.9375 4.25 -5.75 5.0625 C-0.35383619 13.04548461 1.83583867 22.80764716 4.3203125 31.99609375 C5.13045882 34.98211431 5.13045882 34.98211431 6.3671875 37.28515625 C7.25 39.0625 7.25 39.0625 7.25 42.0625 C7.91 42.0625 8.57 42.0625 9.25 42.0625 C7.62946509 37.14601355 5.99335416 32.23509448 4.34277344 27.32861328 C3.78380181 25.65979475 3.2290663 23.98955096 2.67871094 22.31787109 C1.88553355 19.91113611 1.07711483 17.50998801 0.265625 15.109375 C0.02378479 14.36443787 -0.21805542 13.61950073 -0.46722412 12.85198975 C-1.90349289 8.6594063 -3.34363115 5.91574189 -6.75 3.0625 C-7.41 2.4025 -8.07 1.7425 -8.75 1.0625 C-5.75519083 0.1901588 -3.11424089 -0.04579766 0 0 Z " fill="#EFDFC9" transform="translate(197.75,40.9375)"/>
<path d="M0 0 C2.57940476 0.258833 5.12290784 0.57177871 7.6875 0.9375 C16.70571365 2.65188385 16.70571365 2.65188385 25 0 C27.61409145 -0.17145815 30.11869674 -0.23233432 32.73046875 -0.1953125 C33.48088943 -0.1924826 34.23131012 -0.18965271 35.00447083 -0.18673706 C37.39897675 -0.17555062 39.79310731 -0.15044928 42.1875 -0.125 C43.81184355 -0.11496819 45.43619297 -0.10584269 47.06054688 -0.09765625 C51.040509 -0.07561637 55.02019088 -0.0410974 59 0 C59.495 3.96 59.495 3.96 60 8 C37.89 8 15.78 8 -7 8 C-1 1 -1 1 0 0 Z " fill="#FCF7F8" transform="translate(280,98)"/>
<path d="M0 0 C2.5625 2.0625 2.5625 2.0625 4 5 C3.92030952 9.54235758 3.26305809 12.73694191 0 16 C-0.66 16 -1.32 16 -2 16 C-1.690625 15.46375 -1.38125 14.9275 -1.0625 14.375 C0.17827439 11.6015043 0.5909675 8.99957163 1 6 C-0.63709315 4.31135412 -0.63709315 4.31135412 -3 3 C-6.8355908 3.13523839 -6.8355908 3.13523839 -10 5 C-9.65266996 11.35359825 -7.25171078 16.4267349 -4.5625 22.125 C-3.7505173 23.87724071 -2.9392952 25.62983413 -2.12890625 27.3828125 C-1.76869385 28.14996582 -1.40848145 28.91711914 -1.03735352 29.70751953 C0.05052686 32.11166092 1.03697721 34.54349186 2 37 C1.34 37 0.68 37 0 37 C-0.33 37.66 -0.66 38.32 -1 39 C-2.485 34.05 -2.485 34.05 -4 29 C-4.66 29 -5.32 29 -6 29 C-6 28.01 -6 27.02 -6 26 C-6.66 26 -7.32 26 -8 26 C-10.625 23.6875 -10.625 23.6875 -13 21 C-13 20.01 -13 19.02 -13 18 C-11.68 18.66 -10.36 19.32 -9 20 C-9 19.01 -9 18.02 -9 17 C-10.45880109 17.14107747 -11.91703551 17.28802415 -13.375 17.4375 C-14.18710938 17.51871094 -14.99921875 17.59992187 -15.8359375 17.68359375 C-18.04272805 17.89090114 -18.04272805 17.89090114 -20 19 C-18.85204956 20.00909424 -18.85204956 20.00909424 -17.6809082 21.03857422 C-14.74057639 24.28656847 -13.42526105 27.29853812 -12.10546875 31.3828125 C-11.86838699 32.07889618 -11.63130524 32.77497986 -11.38703918 33.49215698 C-10.89215502 34.95387814 -10.40426818 36.41798538 -9.9230957 37.88427734 C-9.18584563 40.13003944 -8.42794096 42.36797172 -7.66601562 44.60546875 C-7.18629149 46.03084384 -6.70773442 47.45661236 -6.23046875 48.8828125 C-6.00554245 49.55160431 -5.78061615 50.22039612 -5.5488739 50.90945435 C-4.62400133 53.73858639 -4 56.00100696 -4 59 C-4.66 59 -5.32 59 -6 59 C-9.09002454 52.58497928 -11.23486516 46.18460404 -13.0625 39.3125 C-15.13618705 29.22494187 -15.13618705 29.22494187 -21.1875 21.625 C-22.0846875 21.315625 -22.0846875 21.315625 -23 21 C-22.40790974 22.48998538 -21.81551977 23.97985211 -21.22192383 25.46923828 C-20.69082806 26.80185392 -20.16074687 28.13487428 -19.6315918 29.46826172 C-18.18121277 33.10702776 -16.69889818 36.72685651 -15.1484375 40.32421875 C-11.49652298 48.84599654 -8.82314229 56.88428856 -7 66 C-6.67 66.99 -6.34 67.98 -6 69 C-6.99 69 -7.98 69 -9 69 C-9.17015625 68.36723145 -9.3403125 67.73446289 -9.515625 67.08251953 C-12.71086947 55.33617201 -15.94774408 43.89016746 -21.421875 32.97509766 C-23.75628089 28.18839837 -25.2986083 23.39948286 -25 18 C-22.31907309 15.31907309 -20.60832637 15.61329743 -16.875 15.375 C-15.77929688 15.30023438 -14.68359375 15.22546875 -13.5546875 15.1484375 C-12.71164063 15.09945312 -11.86859375 15.05046875 -11 15 C-11.49886719 13.87464844 -11.49886719 13.87464844 -12.0078125 12.7265625 C-13.33674554 9.07461265 -12.96788996 6.73328984 -12 3 C-8.96335135 -0.76544433 -4.50925669 -0.9682453 0 0 Z " fill="#D4526C" transform="translate(211,24)"/>
<path d="M0 0 C3.06943514 1.97808042 5.41438298 4.06171872 7.8125 6.8125 C7.8125 7.4725 7.8125 8.1325 7.8125 8.8125 C5.5025 9.1425 3.1925 9.4725 0.8125 9.8125 C-0.5075 7.1725 -1.8275 4.5325 -3.1875 1.8125 C-6.1575 1.8125 -9.1275 1.8125 -12.1875 1.8125 C-14.99108386 9.34713162 -15.58632679 17.88246283 -12.875 25.5 C-11.23026456 28.03326102 -11.23026456 28.03326102 -8.1875 29.8125 C-4.83701897 30.25501636 -2.34284545 30.53648285 0.6015625 28.69140625 C2.06535873 27.46695111 3.44650187 26.1451811 4.8125 24.8125 C4.47716224 27.94231912 3.81183599 28.81311159 1.4375 31 C-2.88257781 33.98291087 -7.04895322 34.49260178 -12.1875 33.8125 C-17.00567066 32.02511411 -20.348496 29.071006 -23.1875 24.8125 C-25.1952921 18.78912369 -25.23703453 12.07303591 -22.5625 6.3125 C-16.22571562 -0.35779935 -8.82499449 -3.28774305 0 0 Z " fill="#D34867" transform="translate(356.1875,121.1875)"/>
<path d="M0 0 C3.3 0 6.6 0 10 0 C14.95 9.57 19.9 19.14 25 29 C25.33 19.43 25.66 9.86 26 0 C26.33 0 26.66 0 27 0 C27 10.89 27 21.78 27 33 C23.7 33 20.4 33 17 33 C15.06074205 29.45929322 13.12390879 25.91726567 11.1875 22.375 C10.64029297 21.37597656 10.09308594 20.37695312 9.52929688 19.34765625 C8.99755859 18.37441406 8.46582031 17.40117187 7.91796875 16.3984375 C7.43094482 15.50817871 6.9439209 14.61791992 6.44213867 13.70068359 C4.90826858 10.82821517 3.45628516 7.91257032 2 5 C1.67 14.24 1.34 23.48 1 33 C0.67 33 0.34 33 0 33 C0 22.11 0 11.22 0 0 Z " fill="#D34866" transform="translate(302,121)"/>
<path d="M0 0 C0.99 0.33 1.98 0.66 3 1 C1.90403049 3.95911769 0.83214501 5.13272255 -1.6875 7.125 C-6.45505318 10.95081428 -11.18929749 16.26829302 -12.51171875 22.35546875 C-12.63321724 24.73766082 -12.63321724 24.73766082 -12 28 C-10.11861241 30.28930236 -10.11861241 30.28930236 -7.0625 30.375 C1.55841991 30.08942087 9.51185815 25.38767476 16.78515625 21.171875 C19 20 19 20 21 20 C21 20.66 21 21.32 21 22 C21.66 22 22.32 22 23 22 C23 22.66 23 23.32 23 24 C20.90467438 25.56394622 18.83175993 26.98386171 16.625 28.375 C15.66750854 28.98009399 15.66750854 28.98009399 14.69067383 29.59741211 C7.00242036 34.35515239 -0.67768655 38.59653793 -10 37 C-13.0625 35.5 -13.0625 35.5 -15 34 C-14.505 31.03 -14.505 31.03 -14 28 C-14.99 28 -15.98 28 -17 28 C-17.61313093 20.64242884 -15.49620148 16.07788513 -10.87109375 10.375 C-3.65224234 2.19284223 -3.65224234 2.19284223 0 0 Z " fill="#EFDFC9" transform="translate(224,69)"/>
<path d="M0 0 C0.66 0 1.32 0 2 0 C1.34 1.32 0.68 2.64 0 4 C22.11 4 44.22 4 67 4 C67.33 4.66 67.66 5.32 68 6 C68.99 6.66 69.98 7.32 71 8 C18.2 8 -34.6 8 -89 8 C-89 7.67 -89 7.34 -89 7 C-87.8039917 6.98018066 -86.6079834 6.96036133 -85.37573242 6.93994141 C-80.94192306 6.86391728 -76.50844326 6.77519503 -72.07495117 6.68261719 C-70.15542096 6.64431423 -68.23581865 6.60946367 -66.31616211 6.578125 C-63.5581687 6.53250298 -60.80067223 6.4745042 -58.04296875 6.4140625 C-56.75376778 6.39673569 -56.75376778 6.39673569 -55.43852234 6.37905884 C-54.23761711 6.3492543 -54.23761711 6.3492543 -53.01245117 6.31884766 C-51.95655037 6.29886215 -51.95655037 6.29886215 -50.87931824 6.2784729 C-48.66902536 6.08755815 -48.66902536 6.08755815 -46 4 C-43.08007812 3.6652832 -43.08007812 3.6652832 -39.53125 3.55078125 C-38.23703125 3.50759766 -36.9428125 3.46441406 -35.609375 3.41992188 C-34.93326172 3.40243896 -34.25714844 3.38495605 -33.56054688 3.36694336 C-31.53456787 3.31341335 -29.5097347 3.24292788 -27.484375 3.16992188 C-20.6062449 2.96262645 -13.98256604 3.0065146 -7.16040039 3.95947266 C-4.70045751 4.20386887 -4.70045751 4.20386887 -1.9375 2.0625 C-0.9784375 1.0415625 -0.9784375 1.0415625 0 0 Z " fill="#E493A4" transform="translate(274,101)"/>
<path d="M0 0 C0.33 0 0.66 0 1 0 C1.33 2.31 1.66 4.62 2 7 C2.804375 7.2475 3.60875 7.495 4.4375 7.75 C7 9 7 9 7.875 10.9375 C8 13 8 13 7 16 C12.7974423 16.24428343 12.7974423 16.24428343 18 14 C17.01 13.38125 16.02 12.7625 15 12.125 C14.01 11.42375 13.02 10.7225 12 10 C12 9.34 12 8.68 12 8 C16.74882981 10.07761304 20.73701971 13.37473332 24.8671875 16.45507812 C29.07200848 19.58230882 29.07200848 19.58230882 34 21 C36.28626069 19.66487102 38.27980519 18.33829284 40.375 16.75 C51.16475751 8.75852072 51.16475751 8.75852072 55.375 9.3125 C55.91125 9.539375 56.4475 9.76625 57 10 C56.22398437 10.37769531 55.44796875 10.75539063 54.6484375 11.14453125 C47.25769789 14.91045704 40.89976205 19.13440539 34.58349609 24.53051758 C33.11263361 25.75865152 31.56124845 26.88903075 30 28 C29.01 27.67 28.02 27.34 27 27 C28.32 26.34 29.64 25.68 31 25 C31 24.34 31 23.68 31 23 C28.72945605 21.73858669 26.95721392 20.99286899 24.375 20.5625 C22 20 22 20 20 17 C19.01 17.33 18.02 17.66 17 18 C11.96056114 18.40579751 7.58191774 18.36486077 3 16 C3 16.66 3 17.32 3 18 C2.34 18 1.68 18 1 18 C1.061875 18.7425 1.12375 19.485 1.1875 20.25 C0.96070783 23.57628517 0.43044773 24.73158211 -2 27 C-5.1875 27.75 -5.1875 27.75 -8 28 C-0.97217958 29.0390717 -0.97217958 29.0390717 6 28 C5.01 28.99 4.02 29.98 3 31 C7.95 32.65 12.9 34.3 18 36 C18 36.33 18 36.66 18 37 C16.6078125 37.433125 16.6078125 37.433125 15.1875 37.875 C11.90208333 38.8875 11.90208333 38.8875 9 41 C9.66 39.35 10.32 37.7 11 36 C3.74 35.67 -3.52 35.34 -11 35 C-11 34.67 -11 34.34 -11 34 C-5.06 33.505 -5.06 33.505 1 33 C-0.753125 32.71125 -2.50625 32.4225 -4.3125 32.125 C-7.98543749 31.52004559 -9.85426323 31.09715785 -13 29 C-13 28.01 -13 27.02 -13 26 C-7.555 25.01 -7.555 25.01 -2 24 C-1.95875 22.948125 -1.9175 21.89625 -1.875 20.8125 C-0.72809692 15.81527945 0.90224658 14.87714602 5 12 C3.27523089 11.04497842 3.27523089 11.04497842 1 11 C-1.60414714 13.35412766 -1.60414714 13.35412766 -4 16 C-4.99 16.33 -5.98 16.66 -7 17 C-5.55746343 13.63408134 -3.66735273 11.48952921 -1 9 C-1.99 8.34 -2.98 7.68 -4 7 C-2.68 6.67 -1.36 6.34 0 6 C0 4.02 0 2.04 0 0 Z " fill="#D4516B" transform="translate(267,61)"/>
<path d="M0 0 C2.64 0 5.28 0 8 0 C8.01981934 0.76666992 8.03963867 1.53333984 8.06005859 2.32324219 C8.15535446 5.79917219 8.26501598 9.27450506 8.375 12.75 C8.4059375 13.9565625 8.436875 15.163125 8.46875 16.40625 C8.50742187 17.56640625 8.54609375 18.7265625 8.5859375 19.921875 C8.6173584 20.99018555 8.6487793 22.05849609 8.68115234 23.15917969 C8.9953377 25.95846057 9.46877553 27.65588649 11 30 C14.01868434 31.50934217 16.67297229 31.17510672 20 31 C23.24849977 29.27773504 23.24849977 29.27773504 24 26 C24.14986411 24.0093556 24.24828038 22.01464609 24.31640625 20.01953125 C24.35830078 18.85615234 24.40019531 17.69277344 24.44335938 16.49414062 C24.48267578 15.27919922 24.52199219 14.06425781 24.5625 12.8125 C24.60568359 11.58595703 24.64886719 10.35941406 24.69335938 9.09570312 C24.7995309 6.06391619 24.90157952 3.03204685 25 0 C25.66 0 26.32 0 27 0 C27.08770383 3.85402129 27.14062735 7.70778291 27.1875 11.5625 C27.21263672 12.64853516 27.23777344 13.73457031 27.26367188 14.85351562 C27.32008121 21.03973974 27.07371108 25.57449062 24 31 C20.9727675 34.0272325 17.79438311 34.17352056 13.625 34.3125 C9.04365759 34.25975428 6.52636877 33.0226018 3 30 C-0.10015491 26.68323436 -0.35892858 24.40714333 -0.29296875 19.921875 C-0.2784668 18.18164062 -0.2784668 18.18164062 -0.26367188 16.40625 C-0.23853516 15.1996875 -0.21339844 13.993125 -0.1875 12.75 C-0.17396484 11.52796875 -0.16042969 10.3059375 -0.14648438 9.046875 C-0.1111398 6.03080502 -0.0617956 3.01562513 0 0 Z " fill="#D5506D" transform="translate(272,121)"/>
<path d="M0 0 C2.78445444 5.012018 3.12483509 9.64000656 3.0625 15.3125 C3.05347656 16.38113281 3.04445313 17.44976562 3.03515625 18.55078125 C3.02355469 19.35902344 3.01195312 20.16726562 3 21 C2.67 21 2.34 21 2 21 C2 19.02 2 17.04 2 15 C1.45730469 15.32871094 0.91460937 15.65742187 0.35546875 15.99609375 C-2.50361372 17.21464134 -4.59369489 17.16576452 -7.6875 17.0625 C-9.4576347 17.00857537 -11.22916265 16.97951097 -13 17 C-13.33 17.33 -13.66 17.66 -14 18 C-16.30993382 18.12557162 -18.62418536 18.17575729 -20.9375 18.1875 C-22.20464844 18.20167969 -23.47179687 18.21585938 -24.77734375 18.23046875 C-28 18 -28 18 -30 16 C-29.6730244 13.38419521 -29.17960932 11.35921863 -28 9 C-25.19921875 8.4375 -25.19921875 8.4375 -21.6875 8 C-17.61380003 7.48907682 -14.62511057 6.85332851 -11 5 C-8.421875 4.5859375 -8.421875 4.5859375 -5.75 4.375 C-4.85796875 4.30023437 -3.9659375 4.22546875 -3.046875 4.1484375 C-2.37140625 4.09945313 -1.6959375 4.05046875 -1 4 C-0.67 2.68 -0.34 1.36 0 0 Z " fill="#D5546D" transform="translate(267,23)"/>
<path d="M0 0 C0.9590625 0.2475 0.9590625 0.2475 1.9375 0.5 C7.34608243 1.38303387 12.70413774 1.5131035 18 0 C19.36421031 2.72842061 18.87807211 4.60953318 18.5625 7.625 C18.46066406 8.62789062 18.35882813 9.63078125 18.25390625 10.6640625 C18.17011719 11.43492188 18.08632813 12.20578125 18 13 C18.928125 13.4021875 18.928125 13.4021875 19.875 13.8125 C22 15 22 15 24 18 C27.08365871 18.2502157 27.08365871 18.2502157 30 18 C30.66 16.68 31.32 15.36 32 14 C32.66 14 33.32 14 34 14 C34 16.31 34 18.62 34 21 C28.71909861 22.01123644 23.17740427 22.84331709 18 21 C16.15132548 18.81768895 15.24203899 16.62208232 14 14 C11.143164 12.10566025 8.8292949 11.72704369 5.4375 11.75 C4.29087891 11.74226563 4.29087891 11.74226563 3.12109375 11.734375 C0.70017238 11.8770439 0.70017238 11.8770439 -2 14 C-4.48046875 13.9765625 -4.48046875 13.9765625 -7.1875 13.625 C-8.08855469 13.51414062 -8.98960937 13.40328125 -9.91796875 13.2890625 C-10.60503906 13.19367188 -11.29210937 13.09828125 -12 13 C-11.67 12.34 -11.34 11.68 -11 11 C-10.030625 10.855625 -9.06125 10.71125 -8.0625 10.5625 C-7.051875 10.376875 -6.04125 10.19125 -5 10 C-3.0549 7.08235 -2.54723683 5.37462715 -2 2 C-1.34 2 -0.68 2 0 2 C0 1.34 0 0.68 0 0 Z " fill="#EEDEC8" transform="translate(270,77)"/>
<path d="M0 0 C0 1.65 0 3.3 0 5 C1.32 5 2.64 5 4 5 C4 6.98 4 8.96 4 11 C8.36464604 13.46740125 12.07990462 13.55653538 17 13 C19.76574192 12.17219143 22.32534141 11.10675528 25 10 C25.99 10 26.98 10 28 10 C28 10.66 28 11.32 28 12 C33.94 12 39.88 12 46 12 C46 12.33 46 12.66 46 13 C38.08 13.33 30.16 13.66 22 14 C37.84 14.495 37.84 14.495 54 15 C54 15.33 54 15.66 54 16 C29.25 16 4.5 16 -21 16 C-21 15.67 -21 15.34 -21 15 C-8.625 14.505 -8.625 14.505 4 14 C-1.84500229 10.49299862 -5.37167069 10.26544546 -12 10 C-12.98444092 9.95117676 -12.98444092 9.95117676 -13.98876953 9.90136719 C-16.11748467 9.80377849 -18.24474852 9.74087205 -20.375 9.6875 C-21.39170776 9.64266479 -21.39170776 9.64266479 -22.42895508 9.59692383 C-27.33151447 9.54040492 -29.4185612 10.79189139 -33 14 C-33.99 14 -34.98 14 -36 14 C-35.80969425 10.57449642 -35.19347397 9.20452963 -32.8125 6.6875 C-24.89196837 1.976968 -11.75608183 5.10194032 -3 6 C-3.495 3.525 -3.495 3.525 -4 1 C-1 0 -1 0 0 0 Z " fill="#D24362" transform="translate(206,92)"/>
<path d="M0 0 C3.3 0 6.6 0 10 0 C12.64 4.95 15.28 9.9 18 15 C19.32 12.69 20.64 10.38 22 8 C22.33 8.99 22.66 9.98 23 11 C22.360625 12.093125 21.72125 13.18625 21.0625 14.3125 C17.86820517 20.16321871 18.67281786 26.52906438 19 33 C16.03 33 13.06 33 10 33 C10.03222656 32.20980469 10.06445312 31.41960937 10.09765625 30.60546875 C9.97724958 18.89926441 5.3727057 10.18100595 0 0 Z " fill="#D34665" transform="translate(401,121)"/>
<path d="M0 0 C2.85475306 -0.08156437 5.70713565 -0.14076372 8.5625 -0.1875 C9.36236328 -0.21263672 10.16222656 -0.23777344 10.98632812 -0.26367188 C16.44003211 -0.33045192 20.19730048 0.34831648 25 3 C27 6 27 6 26.9375 9.4375 C26 13 26 13 23.8125 15.375 C18.13829472 18.65342972 14.57392177 17.93913168 8 17 C8 11.72 8 6.44 8 1 C5.36 1 2.72 1 0 1 C0 0.67 0 0.34 0 0 Z " fill="#D44F6C" transform="translate(368,121)"/>
<path d="M0 0 C3.43742918 -0.05802698 6.87473253 -0.09360486 10.3125 -0.125 C11.28896484 -0.14175781 12.26542969 -0.15851562 13.27148438 -0.17578125 C14.20927734 -0.18222656 15.14707031 -0.18867188 16.11328125 -0.1953125 C16.97735596 -0.20578613 17.84143066 -0.21625977 18.73168945 -0.22705078 C21 0 21 0 24 2 C23.68435049 4.94606211 23.11076592 5.90118141 20.86328125 7.90625 C17.8081097 10.14031814 14.70752808 11.95732972 11.375 13.75 C9.68503906 14.67039062 9.68503906 14.67039062 7.9609375 15.609375 C5 17 5 17 2 17 C1.47097431 14.54316882 0.95149191 12.08497874 0.4375 9.625 C0.28603516 8.92632812 0.13457031 8.22765625 -0.02148438 7.5078125 C-1.11328125 2.2265625 -1.11328125 2.2265625 0 0 Z " fill="#FDFAFA" transform="translate(269,26)"/>
<path d="M0 0 C1.11375 0.1546875 1.11375 0.1546875 2.25 0.3125 C1.82847656 0.79460937 1.40695312 1.27671875 0.97265625 1.7734375 C0.42480469 2.40507813 -0.12304688 3.03671875 -0.6875 3.6875 C-1.50541016 4.62722656 -1.50541016 4.62722656 -2.33984375 5.5859375 C-3.81958624 7.26882334 -3.81958624 7.26882334 -4.75 9.3125 C-3.97076172 8.53712891 -3.97076172 8.53712891 -3.17578125 7.74609375 C-2.47839844 7.08738281 -1.78101563 6.42867188 -1.0625 5.75 C-0.37800781 5.08871094 0.30648438 4.42742187 1.01171875 3.74609375 C3.25 2.3125 3.25 2.3125 6.01953125 2.59765625 C6.75558594 2.83355469 7.49164063 3.06945312 8.25 3.3125 C7.486875 3.9725 6.72375 4.6325 5.9375 5.3125 C3.66189962 7.54335543 2.67711677 9.48166884 1.6875 12.5 C0.45167434 16.15255138 0.45167434 16.15255138 -1.5625 17.75 C-4.27593502 18.44774043 -6.97457737 18.93403328 -9.75 19.3125 C-10.08 20.3025 -10.41 21.2925 -10.75 22.3125 C-17.5 21.5625 -17.5 21.5625 -19.75 19.3125 C-19.75 18.3225 -19.75 17.3325 -19.75 16.3125 C-17.77 16.3125 -15.79 16.3125 -13.75 16.3125 C-13.73582031 15.64863281 -13.72164062 14.98476562 -13.70703125 14.30078125 C-13.26896425 6.19062194 -13.26896425 6.19062194 -10.1875 3.1875 C-9.383125 2.56875 -8.57875 1.95 -7.75 1.3125 C-6.75 3.3125 -6.75 3.3125 -6.75 5.3125 C-6.193125 4.4875 -5.63625 3.6625 -5.0625 2.8125 C-2.75 0.3125 -2.75 0.3125 0 0 Z " fill="#EFE1CA" transform="translate(264.75,68.6875)"/>
<path d="M0 0 C0.83789062 -0.020625 1.67578125 -0.04125 2.5390625 -0.0625 C7.67541914 -0.09480413 11.17008713 0.40878622 15.625 3.25 C17.625 5.25 17.625 5.25 18 8 C17.52383273 12.12678301 16.1604857 13.97272757 13.625 17.25 C10.70703125 19.4453125 10.70703125 19.4453125 7.4375 21.375 C6.86596191 21.71337891 6.29442383 22.05175781 5.70556641 22.40039062 C-6.056889 29.25 -6.056889 29.25 -11.375 29.25 C-11.08886719 27.375 -11.08886719 27.375 -10.375 25.25 C-7.79425234 23.7416178 -5.33582477 22.47178018 -2.625 21.25 C4.47194749 18.00569979 4.47194749 18.00569979 10.625 13.25 C11.51093998 10.11136296 11.51093998 10.11136296 11.625 7.25 C8.54026116 5.47034298 6.18567048 4.96563429 2.640625 4.8359375 C1.70605469 4.79726563 0.77148438 4.75859375 -0.19140625 4.71875 C-1.15949219 4.6878125 -2.12757813 4.656875 -3.125 4.625 C-4.10855469 4.58632813 -5.09210938 4.54765625 -6.10546875 4.5078125 C-8.52846037 4.41371574 -10.95144796 4.32807672 -13.375 4.25 C-13.375 3.26 -13.375 2.27 -13.375 1.25 C-8.90642815 -0.00942805 -4.61494424 0.0281399 0 0 Z " fill="#EEDCC7" transform="translate(282.375,19.75)"/>
<path d="M0 0 C1.9375 1.1875 1.9375 1.1875 3 3 C2.77669287 6.64734979 2.61627165 8.38372835 0 11 C-0.57839276 17.29427415 0.62922786 21.54560989 3.3125 27.1875 C3.62123047 27.87263672 3.92996094 28.55777344 4.24804688 29.26367188 C5.60591061 32.23382013 7.01116828 35.01807597 8.73046875 37.80078125 C10 40 10 40 10 43 C6.37271029 41.79090343 6.21474983 41.08782341 4.51171875 37.80078125 C4.05514893 36.92744141 3.5985791 36.05410156 3.12817383 35.15429688 C2.65275146 34.21650391 2.1773291 33.27871094 1.6875 32.3125 C0.95599731 30.8884082 0.95599731 30.8884082 0.2097168 29.43554688 C-10.66499155 8.05881191 -10.66499155 8.05881191 -10 2 C-6.89573811 -1.58184064 -4.35794704 -1.29811188 0 0 Z " fill="#EFE1CA" transform="translate(210,27)"/>
<path d="M0 0 C1.32 0.66 2.64 1.32 4 2 C4 2.66 4 3.32 4 4 C4.61875 4.268125 5.2375 4.53625 5.875 4.8125 C8 6 8 6 10 9 C4.70987333 10.57578241 -0.60204011 11.84941444 -6 13 C-6 13.66 -6 14.32 -6 15 C0.36416924 13.43247063 6.71356657 11.85735533 13 10 C13.66 10.66 14.32 11.32 15 12 C13.313332 12.97826744 11.62475482 13.95341963 9.92578125 14.91015625 C8.29202123 15.83473849 6.67523843 16.78921966 5.0625 17.75 C1.03271836 19.39480883 -1.66603214 19.36116399 -6 19 C-8 17 -8 17 -8.375 14.3125 C-7.69177168 8.27731652 -4.48183061 4.00163447 0 0 Z " fill="#E9C3B6" transform="translate(221,79)"/>
<path d="M0 0 C0 1.32 0 2.64 0 4 C-0.84820312 4.20753906 -1.69640625 4.41507812 -2.5703125 4.62890625 C-17.31661904 8.50183731 -31.10164057 15.10164057 -42 26 C-42.99 26 -43.98 26 -45 26 C-44.11822172 20.21093391 -39.3832009 17.41182122 -35 14 C-24.57579569 6.39960729 -13.27310431 -0.30166146 0 0 Z " fill="#EFE0C9" transform="translate(339,68)"/>
<path d="M0 0 C0.17942163 3.94727588 0.09350689 6.5980513 -2 10 C-1.34 10 -0.68 10 0 10 C0.66 8.02 1.32 6.04 2 4 C2.66 4.33 3.32 4.66 4 5 C3.01 6.98 2.02 8.96 1 11 C4.01327566 9.49336217 4.61056618 6.96833589 6 4 C7.27351308 6.54702616 6.80191925 7.4282945 6.0625 10.125 C5.86785156 10.84945312 5.67320312 11.57390625 5.47265625 12.3203125 C5.31667969 12.87460938 5.16070312 13.42890625 5 14 C2.3118751 14.08164159 -0.373723 14.14079668 -3.0625 14.1875 C-4.19075195 14.22520508 -4.19075195 14.22520508 -5.34179688 14.26367188 C-10.66631856 14.33282151 -14.24346434 13.40669334 -19 11 C-17.93161852 7.90169371 -17.05608991 7.03365395 -14.1875 5.3125 C-11.39642868 4.16323534 -8.93867588 3.5714092 -6 3 C-5.34 2.34 -4.68 1.68 -4 1 C-1 0 -1 0 0 0 Z " fill="#EEDCC7" transform="translate(359,90)"/>
<path d="M0 0 C1 1 1 1 1.5 3.5625 C0.6591139 9.34359191 -3.34164997 13.01300517 -7.91796875 16.43359375 C-9.75 17.5625 -9.75 17.5625 -13 19 C-13.99 18.67 -14.98 18.34 -16 18 C-16.83830986 11.29352113 -16.83830986 11.29352113 -14.546875 7.7578125 C-10.09158981 2.64733831 -7.10908123 -0.46363573 0 0 Z " fill="#FCF8F9" transform="translate(131,129)"/>
<path d="M0 0 C0.33 0.66 0.66 1.32 1 2 C3.42031698 2.35539404 3.42031698 2.35539404 6.25 2.4375 C10.56877899 2.74638536 13.55818967 3.15160525 17 6 C17 6.33 17 6.66 17 7 C1.48400679 8.42454528 1.48400679 8.42454528 -4.375 6.6875 C-7.58537037 5.8412289 -8.71003667 5.87704593 -11.828125 7.19921875 C-14.29586402 8.67779422 -16.6590596 10.32789972 -19 12 C-15.37 12.33 -11.74 12.66 -8 13 C-8 13.33 -8 13.66 -8 14 C-12.62 14 -17.24 14 -22 14 C-22.33 13.01 -22.66 12.02 -23 11 C-21.23174858 9.85018626 -19.46030479 8.70528078 -17.6875 7.5625 C-16.70136719 6.92441406 -15.71523437 6.28632812 -14.69921875 5.62890625 C-12 4 -12 4 -9 3 C-9 2.34 -9 1.68 -9 1 C-4.545 0.505 -4.545 0.505 0 0 Z " fill="#D96A7B" transform="translate(256,90)"/>
<path d="M0 0 C1.20272819 2.40545638 1.10071472 3.94996953 1.0625 6.625 C1.05347656 7.44226562 1.04445312 8.25953125 1.03515625 9.1015625 C1.02355469 9.72804688 1.01195312 10.35453125 1 11 C-0.32 11.33 -1.64 11.66 -3 12 C-3.33 10.68 -3.66 9.36 -4 8 C-4.99 9.485 -4.99 9.485 -6 11 C-8.99332739 10.0022242 -9.94766315 9.2477975 -12 7 C-12.33 8.32 -12.66 9.64 -13 11 C-14.32 10.67 -15.64 10.34 -17 10 C-16.01 9.34 -15.02 8.68 -14 8 C-14.66 8 -15.32 8 -16 8 C-16.33 7.01 -16.66 6.02 -17 5 C-14.31625712 3.21083808 -12.95721111 2.60917406 -9.9375 1.9375 C-1.33884298 0 -1.33884298 0 0 0 Z " fill="#E9C2B5" transform="translate(230,35)"/>
<path d="M0 0 C2.31 0.33 4.62 0.66 7 1 C9.45396331 4.68094496 9.69693286 7.72375765 9 12 C7.3125 14.5 7.3125 14.5 5 16 C3.35 16 1.7 16 0 16 C0 10.72 0 5.44 0 0 Z " fill="#FCF6F7" transform="translate(377,122)"/>
<path d="M0 0 C1.8125 0.1875 1.8125 0.1875 4 1 C10.14545975 10.10731793 12.33202251 21.48419509 15 32 C14.01 32 13.02 32 12 32 C10.28422691 27.9277008 8.57543229 23.85256612 6.87304688 19.7746582 C6.29292721 18.38778934 5.71090747 17.00171368 5.12695312 15.61645508 C4.28795694 13.625266 3.45583338 11.63132516 2.625 9.63671875 C2.12226563 8.43748779 1.61953125 7.23825684 1.1015625 6.00268555 C0 3 0 3 0 0 Z " fill="#EFE0C9" transform="translate(188,45)"/>
<path d="M0 0 C0.66 0 1.32 0 2 0 C2.12375 0.928125 2.12375 0.928125 2.25 1.875 C2.81258459 4.18437567 2.81258459 4.18437567 5.0625 5.25 C5.701875 5.4975 6.34125 5.745 7 6 C6.05125 6.433125 5.1025 6.86625 4.125 7.3125 C0.71083006 9.15615177 -0.35555671 10.71111343 -2.0625 14.125 C-3 16 -3 16 -4 17 C-5.66617115 17.04063832 -7.33388095 17.042721 -9 17 C-8.01 15.68 -7.02 14.36 -6 13 C-7.21236328 13.03480469 -7.21236328 13.03480469 -8.44921875 13.0703125 C-9.51785156 13.08835937 -10.58648437 13.10640625 -11.6875 13.125 C-12.74324219 13.14820312 -13.79898438 13.17140625 -14.88671875 13.1953125 C-18.02251859 12.99858729 -20.17645373 12.33057654 -23 11 C-23.99 11.99 -24.98 12.98 -26 14 C-26 10.38970831 -25.03907418 7.44193324 -24 4 C-23.34 4.33 -22.68 4.66 -22 5 C-22 6.32 -22 7.64 -22 9 C-16.1510882 10.67111766 -10.31449243 10.70261377 -4.5 8.9375 C-1.17423481 6.36003198 -0.76465958 4.05269579 0 0 Z " fill="#D44E69" transform="translate(258,51)"/>
<path d="M0 0 C4.7030342 -0.37624274 8.1043276 -0.42340877 12.4375 1.625 C15.32450149 4.30075748 16.13682957 6.20205012 17 10 C19.97 10 22.94 10 26 10 C21.91240337 12.04379831 21.01314435 12.18594005 16.75 11.625 C15.85796875 11.51414062 14.9659375 11.40328125 14.046875 11.2890625 C13.37140625 11.19367188 12.6959375 11.09828125 12 11 C12 10.34 12 9.68 12 9 C11.07316406 8.73445313 10.14632813 8.46890625 9.19140625 8.1953125 C7.99386719 7.84210938 6.79632813 7.48890625 5.5625 7.125 C4.36753906 6.77695313 3.17257812 6.42890625 1.94140625 6.0703125 C-1 5 -1 5 -2 3 C-1.34 2.34 -0.68 1.68 0 1 C0 0.67 0 0.34 0 0 Z " fill="#D5556D" transform="translate(271,88)"/>
<path d="M0 0 C3.87302138 1.14430177 7.00263439 2.23320098 10 5 C10 5.66 10 6.32 10 7 C9.01 7.66 8.02 8.32 7 9 C7 9.99 7 10.98 7 12 C6.67 12.99 6.34 13.98 6 15 C6.7425 14.54625 7.485 14.0925 8.25 13.625 C10.46930578 12.31359204 12.67967822 11.11719197 15 10 C13.875 12.9375 13.875 12.9375 12 16 C8.8125 16.875 8.8125 16.875 6 17 C5.7525 16.360625 5.505 15.72125 5.25 15.0625 C4.18437567 12.81258459 4.18437567 12.81258459 1.875 12.25 C1.25625 12.1675 0.6375 12.085 0 12 C-1.16063604 7.74433453 -0.76173392 4.3164922 0 0 Z " fill="#D5536C" transform="translate(288,79)"/>
<path d="M0 0 C1.706823 2.2188699 3.22133385 4.38307782 4.625 6.8125 C7.80234311 11.07682891 11.71462978 13.90501039 16 17 C15.67 17.66 15.34 18.32 15 19 C11.08234111 19.81309902 7.82092412 20.37553268 4 19 C4 17.02 4 15.04 4 13 C2.02 12.01 0.04 11.02 -2 10 C-1.125 2.25 -1.125 2.25 0 0 Z " fill="#E8B9B0" transform="translate(270,58)"/>
<path d="M0 0 C2.97 1.65 5.94 3.3 9 5 C8.01 7.97 7.02 10.94 6 14 C1.70700357 15.26264601 -0.87831311 14.62950412 -5 13 C-5 12.34 -5 11.68 -5 11 C-2.03 11.495 -2.03 11.495 1 12 C0.360625 11.71125 -0.27875 11.4225 -0.9375 11.125 C-3 10 -3 10 -4 8 C-2.02 8 -0.04 8 2 8 C-0.475 7.01 -0.475 7.01 -3 6 C-2.01 4.02 -1.02 2.04 0 0 Z " fill="#EEDEC8" transform="translate(368,79)"/>
<path d="M0 0 C3.0625 0.375 3.0625 0.375 5 2.0625 C6.34483625 4.98949654 6.09365662 6.36084989 5.0625 9.375 C3.0625 11.375 3.0625 11.375 0.125 11.75 C-2.9375 11.375 -2.9375 11.375 -4.875 9.6875 C-6.21983625 6.76050346 -5.96865662 5.38915011 -4.9375 2.375 C-2.9375 0.375 -2.9375 0.375 0 0 Z " fill="#DA6881" transform="translate(383.9375,168.625)"/>
<path d="M0 0 C1.5 1.1875 1.5 1.1875 3 3 C3.1875 5.6875 3.1875 5.6875 3 8 C-5.99135447 9.34870317 -5.99135447 9.34870317 -9 8 C-10.7074998 6.71937515 -12.38263741 5.3927289 -14 4 C-9.8623721 0.99081607 -7.04302927 0.80969701 -2 1 C-1.34 0.67 -0.68 0.34 0 0 Z " fill="#E7B8AF" transform="translate(265,29)"/>
<path d="M0 0 C1.8125 1.1875 1.8125 1.1875 3 3 C3.42674516 5.84496772 3.36066991 7.36352369 1.9375 9.875 C-1.14201133 11.66310335 -3.64333273 10.74592606 -7 10 C-8 9 -8 9 -8.25 6.125 C-8 3 -8 3 -6.8125 1.125 C-4.34492892 -0.40659584 -2.85480169 -0.42822025 0 0 Z " fill="#DA6881" transform="translate(191,169)"/>
<path d="M0 0 C9.9 0 19.8 0 30 0 C30 0.99 30 1.98 30 3 C20.1 3 10.2 3 0 3 C0 2.01 0 1.02 0 0 Z " fill="#F0E9CF" transform="translate(306,93)"/>
<path d="M0 0 C2.125 0.375 2.125 0.375 4 1 C4 2.65 4 4.3 4 6 C5.98 5.67 7.96 5.34 10 5 C9.67 6.98 9.34 8.96 9 11 C4.75519536 11.33292585 2.64457375 11.43885872 -0.9375 9 C-1.618125 8.34 -2.29875 7.68 -3 7 C-2.25 2.25 -2.25 2.25 0 0 Z " fill="#EFE0C9" transform="translate(234,71)"/>
<path d="M0 0 C3 0.125 3 0.125 6 1 C7.1875 3 7.1875 3 8 5 C8.99 5.33 9.98 5.66 11 6 C8 8 8 8 5 8 C4.67 6.35 4.34 4.7 4 3 C2.68 3.33 1.36 3.66 0 4 C-0.33 5.65 -0.66 7.3 -1 9 C0.90401138 10.90401138 2.33425686 11.93520439 5.046875 12.19921875 C7.03233273 12.1886578 9.0169914 12.09915043 11 12 C11 12.66 11 13.32 11 14 C9.35 14 7.7 14 6 14 C5.67 14.99 5.34 15.98 5 17 C3.3678622 15.75933437 1.74452679 14.50708312 0.125 13.25 C-0.77992188 12.55390625 -1.68484375 11.8578125 -2.6171875 11.140625 C-4.85047147 9.13433055 -5.91958282 7.75692659 -7 5 C-5.02 5.99 -5.02 5.99 -3 7 C-2.814375 5.824375 -2.814375 5.824375 -2.625 4.625 C-2 2 -2 2 0 0 Z " fill="#D34A66" transform="translate(233,69)"/>
<path d="M0 0 C2.875 -0.125 2.875 -0.125 6 0 C8 2 8 2 8.25 5.5 C8 9 8 9 6 11 C2.875 11.125 2.875 11.125 0 11 C0 7.37 0 3.74 0 0 Z " fill="#D75B76" transform="translate(104,169)"/>
<path d="M0 0 C7.26 0 14.52 0 22 0 C22.66 1.65 23.32 3.3 24 5 C22.68 6.65 21.36 8.3 20 10 C20 8.68 20 7.36 20 6 C9.44 5.67 -1.12 5.34 -12 5 C-12 4.67 -12 4.34 -12 4 C-2.43 4 7.14 4 17 4 C17 3.01 17 2.02 17 1 C11.39 1 5.78 1 0 1 C0 0.67 0 0.34 0 0 Z " fill="#D86377" transform="translate(319,92)"/>
<path d="M0 0 C1.65 0.33 3.3 0.66 5 1 C4.01 1.66 3.02 2.32 2 3 C3.65 3.33 5.3 3.66 7 4 C6.34 4.66 5.68 5.32 5 6 C5.33 6.99 5.66 7.98 6 9 C4.906875 9.268125 3.81375 9.53625 2.6875 9.8125 C-0.93298346 10.62174317 -0.93298346 10.62174317 -2.4375 12.6875 C-4 14 -4 14 -5.953125 13.96875 C-7.9784708 13.71381137 -9.99107413 13.36226532 -12 13 C-11.67 12.34 -11.34 11.68 -11 11 C-10.030625 10.855625 -9.06125 10.71125 -8.0625 10.5625 C-7.051875 10.376875 -6.04125 10.19125 -5 10 C-3.0549 7.08235 -2.54723683 5.37462715 -2 2 C-1.34 2 -0.68 2 0 2 C0 1.34 0 0.68 0 0 Z " fill="#E8BEB3" transform="translate(270,77)"/>
<path d="M0 0 C3.70171331 0.78295944 7.02965057 1.23644237 10.8125 1.125 C14.8125 1.125 14.8125 1.125 17.8125 3.125 C11.90217771 3.74365056 6.10201785 4.18002022 0.16015625 4.09375 C-4.30754779 4.15322027 -8.74653424 4.66015125 -13.1875 5.125 C-8.86764182 0.49658052 -6.34842475 -1.48404734 0 0 Z " fill="#EAC8BA" transform="translate(252.1875,95.875)"/>
<path d="M0 0 C3.66269409 2.72657128 7.31661616 5.45032169 10.875 8.3125 C12.88733802 10.02950671 12.88733802 10.02950671 15 11 C15 10.34 15 9.68 15 9 C15.99 9 16.98 9 18 9 C17.67 10.32 17.34 11.64 17 13 C15 13.8125 15 13.8125 12 14 C6.9920507 11.74844215 2.40867774 8.28833651 -1 4 C-0.62109375 1.84765625 -0.62109375 1.84765625 0 0 Z " fill="#E8B9B0" transform="translate(225,75)"/>
<path d="M0 0 C5.94 0 11.88 0 18 0 C18 0.66 18 1.32 18 2 C17.01 2 16.02 2 15 2 C15 6.95 15 11.9 15 17 C14.34 17 13.68 17 13 17 C12.80482446 15.06325815 12.61912127 13.12555991 12.4375 11.1875 C12.33308594 10.10855469 12.22867187 9.02960938 12.12109375 7.91796875 C12 5 12 5 13 2 C11.7625 2.165 10.525 2.33 9.25 2.5 C6.42179168 2.87709444 3.88435938 3 1 3 C0.67 2.01 0.34 1.02 0 0 Z " fill="#DF7D93" transform="translate(349,137)"/>
<path d="M0 0 C3 1 3 1 4 3 C4.06996014 4.70702735 4.08440154 6.41668003 4.0625 8.125 C4.05347656 9.03507812 4.04445313 9.94515625 4.03515625 10.8828125 C4.02355469 11.58148438 4.01195312 12.28015625 4 13 C2.34385343 13.38218767 0.67542976 13.71395102 -1 14 C-2.73956658 12.26043342 -2.37190386 9.8063378 -2.5625 7.4375 C-2.64628906 6.42558594 -2.73007812 5.41367188 -2.81640625 4.37109375 C-2.87699219 3.58863281 -2.93757813 2.80617188 -3 2 C-2.01 1.34 -1.02 0.68 0 0 Z " fill="#EAC4B7" transform="translate(355,75)"/>
<path d="M0 0 C7.24270068 -0.37462245 11.29141681 0.58582803 16.875 5.5625 C19 8 19 8 19 10 C16.69 10.33 14.38 10.66 12 11 C11.8040625 10.44570312 11.608125 9.89140625 11.40625 9.3203125 C9.6453801 4.83565547 9.6453801 4.83565547 5.953125 2.0234375 C3.51064363 1.40412992 3.51064363 1.40412992 0 1 C0 0.67 0 0.34 0 0 Z " fill="#D65571" transform="translate(345,120)"/>
<path d="M0 0 C0.5775 0.226875 1.155 0.45375 1.75 0.6875 C0.76 1.3475 -0.23 2.0075 -1.25 2.6875 C3.7 4.3375 8.65 5.9875 13.75 7.6875 C13.75 8.0175 13.75 8.3475 13.75 8.6875 C12.3578125 9.120625 12.3578125 9.120625 10.9375 9.5625 C7.65208333 10.575 7.65208333 10.575 4.75 12.6875 C5.41 11.0375 6.07 9.3875 6.75 7.6875 C-0.51 7.3575 -7.77 7.0275 -15.25 6.6875 C-15.25 6.3575 -15.25 6.0275 -15.25 5.6875 C-9.31 5.1925 -9.31 5.1925 -3.25 4.6875 C-4.24 4.0275 -5.23 3.3675 -6.25 2.6875 C-2.80384615 -0.38942308 -2.80384615 -0.38942308 0 0 Z " fill="#D14160" transform="translate(271.25,89.3125)"/>
<path d="M0 0 C-2.75770059 1.83846706 -4.32316518 2.45223936 -7.4375 3.25 C-16.6897824 5.92438236 -24.98084716 10.75670776 -33 16 C-33 15.01 -33 14.02 -33 13 C-23.29098969 5.69198142 -12.32882903 -0.28671695 0 0 Z " fill="#D5536D" transform="translate(338,73)"/>
<path d="M0 0 C1.04865234 0.00322266 2.09730469 0.00644531 3.17773438 0.00976562 C4.20705078 -0.00634766 5.23636719 -0.02246094 6.296875 -0.0390625 C12.31988489 -0.04292093 16.66030402 0.46506109 21.99023438 3.32226562 C21.99023438 3.65226562 21.99023438 3.98226562 21.99023438 4.32226562 C14.90585081 4.44046181 7.9792734 3.98070586 0.92773438 3.32226562 C-0.12865234 3.226875 -1.18503906 3.13148437 -2.2734375 3.03320312 C-4.85256149 2.79979824 -7.43129361 2.56274819 -10.00976562 2.32226562 C-6.99750289 -0.68999711 -4.11981823 0.02921857 0 0 Z " fill="#EDD5C2" transform="translate(245.009765625,100.677734375)"/>
<path d="M0 0 C-0.33 1.98 -0.66 3.96 -1 6 C-3.875 6.625 -3.875 6.625 -7 7 C-7.66 6.34 -8.32 5.68 -9 5 C-8.01 5 -7.02 5 -6 5 C-6 3.68 -6 2.36 -6 1 C-7.05960937 1.23976563 -8.11921875 1.47953125 -9.2109375 1.7265625 C-10.59882762 2.02664685 -11.98685583 2.32609304 -13.375 2.625 C-14.42300781 2.86476563 -14.42300781 2.86476563 -15.4921875 3.109375 C-17.31170787 3.49427354 -19.15634853 3.75556082 -21 4 C-21.66 3.34 -22.32 2.68 -23 2 C-14.97132967 -0.79739104 -8.40069414 -1.21685447 0 0 Z " fill="#D86378" transform="translate(345,67)"/>
<path d="M0 0 C1.65 0 3.3 0 5 0 C7 2 7 2 7.0625 5.5 C7.041875 6.655 7.02125 7.81 7 9 C7.33 9.66 7.66 10.32 8 11 C5.00667261 10.0022242 4.05233685 9.2477975 2 7 C2 8.32 2 9.64 2 11 C1.34 11 0.68 11 0 11 C0 7.37 0 3.74 0 0 Z " fill="#D85C77" transform="translate(397,169)"/>
<path d="M0 0 C5.64497523 -0.21825915 10.57555407 0.79182513 15.72265625 3.1640625 C16.38265625 3.8240625 17.04265625 4.4840625 17.72265625 5.1640625 C9.97265625 4.2890625 9.97265625 4.2890625 7.72265625 3.1640625 C6.12818161 3.08005721 4.5302508 3.05678783 2.93359375 3.06640625 C1.52207031 3.07124023 1.52207031 3.07124023 0.08203125 3.07617188 C-1.39523438 3.08874023 -1.39523438 3.08874023 -2.90234375 3.1015625 C-4.39121094 3.10833008 -4.39121094 3.10833008 -5.91015625 3.11523438 C-8.36594535 3.12704105 -10.82161479 3.1435085 -13.27734375 3.1640625 C-9.77891102 -0.33437023 -4.74987813 0.34218676 0 0 Z " fill="#D5556D" transform="translate(252.27734375,98.8359375)"/>
<path d="M0 0 C3.8633643 0.06231233 4.54919039 0.32741684 7.75 2.875 C9.6875 5.4375 9.6875 5.4375 9.6875 6.4375 C3.81940493 5.91356294 -0.86123741 4.67641142 -6.3125 2.4375 C-3.94209692 0.06709692 -3.24947247 0.09284207 0 0 Z " fill="#E8B9B0" transform="translate(275.3125,89.5625)"/>
<path d="M0 0 C1.65 0 3.3 0 5 0 C3.68 0.33 2.36 0.66 1 1 C1.99 2.65 2.98 4.3 4 6 C4.66 5.67 5.32 5.34 6 5 C6.33 6.98 6.66 8.96 7 11 C4.36 11 1.72 11 -1 11 C-2.26264601 6.70700357 -1.62950412 4.12168689 0 0 Z " fill="#DF7A90" transform="translate(336,169)"/>
<path d="M0 0 C1.60332791 -0.08121924 3.20784026 -0.13929134 4.8125 -0.1875 C6.15248047 -0.23970703 6.15248047 -0.23970703 7.51953125 -0.29296875 C10 0 10 0 11.82421875 1.38671875 C13 3 13 3 13 5 C9.95613276 5.08226668 7.92824652 4.97608217 5 4 C2.99124558 4.27571139 0.98821313 4.60235737 -1 5 C-0.67 3.35 -0.34 1.7 0 0 Z " fill="#EFE1CA" transform="translate(240,34)"/>
<path d="M0 0 C0 0.66 0 1.32 0 2 C-1.32 2 -2.64 2 -4 2 C-4.66 3.32 -5.32 4.64 -6 6 C-6.5775 5.79375 -7.155 5.5875 -7.75 5.375 C-10.60383004 4.89936166 -11.4565071 5.69191794 -14 7 C-16.32495277 7.38749213 -18.65851268 7.72982839 -21 8 C-21 7.01 -21 6.02 -21 5 C-19.824375 4.731875 -18.64875 4.46375 -17.4375 4.1875 C-14.50818952 3.46937979 -12.16710551 2.62663351 -9.375 1.375 C-5.93988742 -0.02449031 -3.66274797 -0.26800595 0 0 Z " fill="#D5576E" transform="translate(236,31)"/>
<path d="M0 0 C3.69243752 0.92310938 5.25545743 1.54951556 8 4 C8 4.66 8 5.32 8 6 C4.69649386 9.11997802 3.67590167 10 -1 10 C-0.67 6.7 -0.34 3.4 0 0 Z " fill="#EEDFC8" transform="translate(290,80)"/>
<path d="M0 0 C0.78375 0.825 1.5675 1.65 2.375 2.5 C4.63721264 5.22988506 4.63721264 5.22988506 7 5 C8.37310707 3.70766393 9.71034824 2.37562854 11 1 C11 4.3 11 7.6 11 11 C10.67 11 10.34 11 10 11 C9.67 9.35 9.34 7.7 9 6 C8.01 7.485 8.01 7.485 7 9 C5.68 8.34 4.36 7.68 3 7 C2.67 8.32 2.34 9.64 2 11 C1.34 11 0.68 11 0 11 C0 7.37 0 3.74 0 0 Z " fill="#DC6E86" transform="translate(360,169)"/>
<path d="M0 0 C3 0.125 3 0.125 4 1.125 C4.125 3.625 4.125 3.625 4 6.125 C3 7.125 3 7.125 0 7.25 C-3 7.125 -3 7.125 -4 6.125 C-4.125 3.625 -4.125 3.625 -4 1.125 C-3 0.125 -3 0.125 0 0 Z " fill="#FBF3F4" transform="translate(384,170.875)"/>
<path d="M0 0 C2.5 0.125 2.5 0.125 3.5 1.125 C3.625 3.625 3.625 3.625 3.5 6.125 C2.5 7.125 2.5 7.125 0.0625 7.3125 C-2.5 7.125 -2.5 7.125 -4.5 5.125 C-3.7519084 0.18759542 -3.7519084 0.18759542 0 0 Z " fill="#FCF8F9" transform="translate(188.5,170.875)"/>
<path d="M0 0 C1.65 0 3.3 0 5 0 C5.66 0.66 6.32 1.32 7 2 C6.625 4.125 6.625 4.125 6 6 C4.35 6.33 2.7 6.66 1 7 C0.67 8.32 0.34 9.64 0 11 C0 7.37 0 3.74 0 0 Z " fill="#D5506D" transform="translate(241,169)"/>
<path d="M0 0 C2.31 0 4.62 0 7 0 C7 0.66 7 1.32 7 2 C5.35 2 3.7 2 2 2 C2 2.99 2 3.98 2 5 C3.65 5 5.3 5 7 5 C7 5.33 7 5.66 7 6 C5.35 6 3.7 6 2 6 C2 6.99 2 7.98 2 9 C3.65 9 5.3 9 7 9 C7 9.66 7 10.32 7 11 C4.69 11 2.38 11 0 11 C0 7.37 0 3.74 0 0 Z " fill="#DA657E" transform="translate(412,169)"/>
<path d="M0 0 C0.66 0 1.32 0 2 0 C3.4375 2.5 3.4375 2.5 4 6 C2.0429144 9.04560871 -0.40300923 11.49333934 -3 14 C-3.66 14.66 -4.32 15.32 -5 16 C-4.88590407 14.54077307 -4.75834456 13.08259402 -4.625 11.625 C-4.55539063 10.81289062 -4.48578125 10.00078125 -4.4140625 9.1640625 C-4 7 -4 7 -2 5 C-1.67 5.66 -1.34 6.32 -1 7 C-0.67 4.69 -0.34 2.38 0 0 Z " fill="#E8BCB2" transform="translate(213,67)"/>
<path d="M0 0 C1.9375 0.3125 1.9375 0.3125 4 1 C4.33 1.99 4.66 2.98 5 4 C4.01 4 3.02 4 2 4 C2 4.99 2 5.98 2 7 C3.32 6.67 4.64 6.34 6 6 C5.67 7.65 5.34 9.3 5 11 C3.125 10.8125 3.125 10.8125 1 10 C-0.68644932 7.10894403 -1.06919665 5.51897488 -0.625 2.1875 C-0.41875 1.465625 -0.2125 0.74375 0 0 Z " fill="#D34D68" transform="translate(249,45)"/>
<path d="M0 0 C0.3619323 4.2225435 -0.33563684 6.66954606 -3 10 C-4.32 10 -5.64 10 -7 10 C-7.3125 7.8125 -7.3125 7.8125 -7 5 C-2.77777778 0 -2.77777778 0 0 0 Z " fill="#EBCEBD" transform="translate(269,38)"/>
<path d="M0 0 C2.64 0 5.28 0 8 0 C6.87548273 2.9719385 5.77706209 5.33440687 4 8 C5.65 8.33 7.3 8.66 9 9 C9 9.66 9 10.32 9 11 C6.03 11 3.06 11 0 11 C1.65 8.03 3.3 5.06 5 2 C3.35 1.67 1.7 1.34 0 1 C0 0.67 0 0.34 0 0 Z " fill="#DB6881" transform="translate(264,169)"/>
<path d="M0 0 C0.33 0 0.66 0 1 0 C1.12375 1.670625 1.12375 1.670625 1.25 3.375 C1.57873787 7.05753944 1.57873787 7.05753944 4.0625 8.4375 C4.701875 8.623125 5.34125 8.80875 6 9 C5.113125 9.391875 4.22625 9.78375 3.3125 10.1875 C-0.12099103 12.06620264 -2.29000698 14.2147294 -5 17 C-5.66 17 -6.32 17 -7 17 C-5.55746343 13.63408134 -3.66735273 11.48952921 -1 9 C-1.99 8.34 -2.98 7.68 -4 7 C-2.68 6.67 -1.36 6.34 0 6 C0 4.02 0 2.04 0 0 Z " fill="#D13F5F" transform="translate(267,61)"/>
<path d="M0 0 C2.23127725 3.34691588 3.38532762 6.71611628 4.625 10.5 C4.85445312 11.17675781 5.08390625 11.85351562 5.3203125 12.55078125 C6.29296917 15.48612014 7 17.88708081 7 21 C6.34 21 5.68 21 5 21 C-2.12391931 6.37175793 -2.12391931 6.37175793 0 0 Z " fill="#D65D72" transform="translate(200,62)"/>
<path d="M0 0 C1.8125 1.5 1.8125 1.5 3 3 C3.66 2.34 4.32 1.68 5 1 C5.33 1.99 5.66 2.98 6 4 C5.01 5.485 5.01 5.485 4 7 C1.00667261 6.0022242 0.05233685 5.2477975 -2 3 C-2.33 4.32 -2.66 5.64 -3 7 C-4.32 6.67 -5.64 6.34 -7 6 C-6.01 5.34 -5.02 4.68 -4 4 C-4.66 4 -5.32 4 -6 4 C-6.33 3.01 -6.66 2.02 -7 1 C-4.45132831 -0.27433584 -2.82594567 -0.27570202 0 0 Z " fill="#EDD7C3" transform="translate(220,39)"/>
<path d="M0 0 C2.96052484 3.36423277 3.92289822 6.69159287 5 11 C4.34 11 3.68 11 3 11 C2.67 10.34 2.34 9.68 2 9 C-0.02463255 8.34786708 -0.02463255 8.34786708 -2 8 C-2.33 8.99 -2.66 9.98 -3 11 C-4 8 -4 8 -3.22265625 5.95703125 C-2.83980469 5.24933594 -2.45695312 4.54164063 -2.0625 3.8125 C-1.68222656 3.09707031 -1.30195313 2.38164062 -0.91015625 1.64453125 C-0.60980469 1.10183594 -0.30945313 0.55914062 0 0 Z " fill="#E18397" transform="translate(299,169)"/>
<path d="M0 0 C1.66611905 -0.042721 3.33382885 -0.04063832 5 0 C6 1 6 1 6.125 3.5 C6 6 6 6 5 7 C3.33382885 7.04063832 1.66611905 7.042721 0 7 C0 4.69 0 2.38 0 0 Z " fill="#FBF4F5" transform="translate(105,171)"/>
<path d="M0 0 C0 0.66 0 1.32 0 2 C-2.54650408 3.87577309 -5.27706631 5.38325812 -8 7 C-4.37 7.33 -0.74 7.66 3 8 C3 8.33 3 8.66 3 9 C-1.62 9 -6.24 9 -11 9 C-11.33 8.01 -11.66 7.02 -12 6 C-10.37829621 4.99466333 -8.75252763 3.99588093 -7.125 3 C-5.76761719 2.1646875 -5.76761719 2.1646875 -4.3828125 1.3125 C-2 0 -2 0 0 0 Z " fill="#D76075" transform="translate(245,95)"/>
<path d="M0 0 C-1.95585325 1.00484204 -3.91476237 2.00373805 -5.875 3 C-6.96554687 3.556875 -8.05609375 4.11375 -9.1796875 4.6875 C-12 6 -12 6 -14 6 C-14.33 7.65 -14.66 9.3 -15 11 C-15.33 11 -15.66 11 -16 11 C-16 9.02 -16 7.04 -16 5 C-13.90163996 3.96728358 -11.79609109 2.94916283 -9.6875 1.9375 C-8.51574219 1.36902344 -7.34398437 0.80054688 -6.13671875 0.21484375 C-3 -1 -3 -1 0 0 Z " fill="#D34B68" transform="translate(286,45)"/>
<path d="M0 0 C2.64 0 5.28 0 8 0 C5.525 4.455 5.525 4.455 3 9 C4.65 9 6.3 9 8 9 C8 9.66 8 10.32 8 11 C5.03 11 2.06 11 -1 11 C0.98 7.7 2.96 4.4 5 1 C3.35 1 1.7 1 0 1 C0 0.67 0 0.34 0 0 Z " fill="#D85F79" transform="translate(280,169)"/>
<path d="M0 0 C2.18213429 3.27320144 2.7401431 5.67668624 3.5625 9.5 C4.26661227 12.73964611 4.95148026 15.85444078 6 19 C5.01 19 4.02 19 3 19 C2.30048937 16.586238 1.61516081 14.16989766 0.9375 11.75 C0.63875977 10.72712891 0.63875977 10.72712891 0.33398438 9.68359375 C-1.40009269 3.41657839 -1.40009269 3.41657839 0 0 Z " fill="#D75E76" transform="translate(199,74)"/>
<path d="M0 0 C2.475 0.495 2.475 0.495 5 1 C4.34 2.98 3.68 4.96 3 7 C3.99 7 4.98 7 6 7 C6 7.99 6 8.98 6 10 C4.68 10 3.36 10 2 10 C-0.09350689 6.5980513 -0.17942163 3.94727588 0 0 Z " fill="#D24864" transform="translate(240,47)"/>
<path d="M0 0 C2.5654594 2.5654594 2.54046087 4.47686668 3 8 C1.35 7.67 -0.3 7.34 -2 7 C-1.34 5.35 -0.68 3.7 0 2 C-3.60992379 2.65585189 -3.60992379 2.65585189 -7 4 C-7.66 3.34 -8.32 2.68 -9 2 C-8.34 2 -7.68 2 -7 2 C-7 1.34 -7 0.68 -7 0 C-3.85179059 -1.04940314 -3.00659136 -1.066855 0 0 Z " fill="#D75E73" transform="translate(227,68)"/>
<path d="M0 0 C2.64 0.99 5.28 1.98 8 3 C8 2.34 8 1.68 8 1 C8.99 1 9.98 1 11 1 C10.67 2.32 10.34 3.64 10 5 C7.875 5.75 7.875 5.75 5 6 C1.6875 4.0625 1.6875 4.0625 -1 2 C-0.67 1.34 -0.34 0.68 0 0 Z " fill="#EDD5C2" transform="translate(232,83)"/>
<path d="M0 0 C0.66 0 1.32 0 2 0 C2 5.28 2 10.56 2 16 C1.34 16 0.68 16 0 16 C-0.1958009 14.08416353 -0.38132214 12.16727461 -0.5625 10.25 C-0.66691406 9.18265625 -0.77132813 8.1153125 -0.87890625 7.015625 C-0.98560074 4.35858796 -0.81930395 2.50039428 0 0 Z " fill="#D65772" transform="translate(362,138)"/>
<path d="M0 0 C0.66 0.66 1.32 1.32 2 2 C2.66 1.67 3.32 1.34 4 1 C4.99 1.66 5.98 2.32 7 3 C8.32 3 9.64 3 11 3 C11 3.66 11 4.32 11 5 C7.86501708 6.85776765 5.62528568 7.20140476 2 7 C0.5393715 4.35261084 0 3.10551666 0 0 Z " fill="#E7B5AD" transform="translate(213,49)"/>
<path d="M0 0 C0.66 0.99 1.32 1.98 2 3 C1.38125 3.78375 0.7625 4.5675 0.125 5.375 C-2.6882496 9.52504196 -3.26744459 14.12272322 -4 19 C-4.33 19 -4.66 19 -5 19 C-6.54219802 13.16167891 -6.00781673 10.33191998 -3.0625 5 C-2.0613067 3.32146181 -1.04674339 1.65051711 0 0 Z " fill="#D65B71" transform="translate(211,78)"/>
<path d="M0 0 C0.66 0.33 1.32 0.66 2 1 C1.38125 1.7425 0.7625 2.485 0.125 3.25 C-1.61086284 5.49641073 -2.81737095 7.45279897 -4 10 C-5 11 -5 11 -7.5625 11.0625 C-8.366875 11.041875 -9.17125 11.02125 -10 11 C-7.64119167 7.64800922 -4.93234873 4.8571603 -2 2 C-1.34 1.34 -0.68 0.68 0 0 Z " fill="#E19698" transform="translate(259,57)"/>
<path d="M0 0 C1.65 0 3.3 0 5 0 C5 0.66 5 1.32 5 2 C3.68 2 2.36 2 1 2 C1.680625 2.556875 2.36125 3.11375 3.0625 3.6875 C4.0215625 4.8321875 4.0215625 4.8321875 5 6 C4.75 8.75 4.75 8.75 4 11 C2.35 11 0.7 11 -1 11 C-1.33 10.34 -1.66 9.68 -2 9 C-0.35 9 1.3 9 3 9 C3 8.34 3 7.68 3 7 C1.68 6.34 0.36 5.68 -1 5 C-0.67 3.35 -0.34 1.7 0 0 Z " fill="#D9647D" transform="translate(312,169)"/>
<path d="M0 0 C0.28875 0.61875 0.5775 1.2375 0.875 1.875 C1.93720042 4.13325765 1.93720042 4.13325765 4 6 C6.44012949 6.24287489 6.44012949 6.24287489 9.125 6.125 C10.03507813 6.10695313 10.94515625 6.08890625 11.8828125 6.0703125 C12.58148438 6.04710938 13.28015625 6.02390625 14 6 C14 6.66 14 7.32 14 8 C10.30516081 9.18234854 6.85646386 9.2804701 3 9 C1.0625 7.875 1.0625 7.875 0 6 C-0.1875 2.8125 -0.1875 2.8125 0 0 Z " fill="#D34B66" transform="translate(211,91)"/>
<path d="M0 0 C0.66 0 1.32 0 2 0 C2 2.97 2 5.94 2 9 C3.65 9 5.3 9 7 9 C7 9.66 7 10.32 7 11 C4.69 11 2.38 11 0 11 C0 7.37 0 3.74 0 0 Z " fill="#E2869A" transform="translate(135,169)"/>
<path d="M0 0 C2.475 0.99 2.475 0.99 5 2 C1.7188698 4.18742014 -0.33084356 4.54442806 -4.1875 5.125 C-5.27417969 5.29257813 -6.36085937 5.46015625 -7.48046875 5.6328125 C-8.31191406 5.75398438 -9.14335937 5.87515625 -10 6 C-10 5.34 -10 4.68 -10 4 C-9.01 4 -8.02 4 -7 4 C-6.67 3.34 -6.34 2.68 -6 2 C-4.34178227 1.62690101 -2.67422986 1.29299023 -1 1 C-0.67 0.67 -0.34 0.34 0 0 Z " fill="#D5596F" transform="translate(225,88)"/>
<path d="M0 0 C2.97 0 5.94 0 9 0 C9.33 0.66 9.66 1.32 10 2 C6.86501708 3.85776765 4.62528568 4.20140476 1 4 C0.67 2.68 0.34 1.36 0 0 Z " fill="#EBCDBD" transform="translate(219,93)"/>
<path d="M0 0 C0.99 0 1.98 0 3 0 C3.92470553 4.71599818 4.22923777 7.67265609 2 12 C0.68 11.67 -0.64 11.34 -2 11 C-2.33 11.66 -2.66 12.32 -3 13 C-3 12.01 -3 11.02 -3 10 C-1.35 10 0.3 10 2 10 C1.814375 9.401875 1.62875 8.80375 1.4375 8.1875 C1 6 1 6 2 3 C1.34 2.67 0.68 2.34 0 2 C0 1.34 0 0.68 0 0 Z " fill="#DB7381" transform="translate(242,73)"/>
<path d="M0 0 C0.78375 0.04125 1.5675 0.0825 2.375 0.125 C1.44847299 1.30039996 0.50836613 2.46510577 -0.4375 3.625 C-0.95957031 4.2746875 -1.48164063 4.924375 -2.01953125 5.59375 C-3.625 7.125 -3.625 7.125 -6.625 7.125 C-4.07142857 0.19387755 -4.07142857 0.19387755 0 0 Z " fill="#EDD7C4" transform="translate(264.625,68.875)"/>
<path d="M0 0 C1.65 1.65 3.3 3.3 5 5 C5.33 4.01 5.66 3.02 6 2 C6.99 2.99 7.98 3.98 9 5 C5.77208445 7.1519437 4.71599191 7.20086443 1 7 C0.01 5.02 -0.98 3.04 -2 1 C-1.34 0.67 -0.68 0.34 0 0 Z " fill="#EED9C5" transform="translate(258,31)"/>
<path d="M0 0 C0.99 0.33 1.98 0.66 3 1 C2.484375 1.33 1.96875 1.66 1.4375 2 C-0.33834722 4.47074396 -0.02853971 5.14445593 0.4375 8.0625 C0.623125 9.361875 0.80875 10.66125 1 12 C0.34 12.66 -0.32 13.32 -1 14 C-3.22532845 9.68024478 -3.06433568 6.70081591 -2 2 C-1.34 1.34 -0.68 0.68 0 0 Z " fill="#D75B75" transform="translate(201,25)"/>
<path d="M0 0 C1.98 0 3.96 0 6 0 C6.33 0.99 6.66 1.98 7 3 C7.99 3.66 8.98 4.32 10 5 C3.9453125 5.1953125 3.9453125 5.1953125 2 5 C1.34 4.34 0.68 3.68 0 3 C0 2.01 0 1.02 0 0 Z " fill="#E7B8AF" transform="translate(213,93)"/>
<path d="M0 0 C0.66 0.33 1.32 0.66 2 1 C2 1.66 2 2.32 2 3 C4.97 3 7.94 3 11 3 C6.91240337 5.04379831 6.01314435 5.18594005 1.75 4.625 C0.85796875 4.51414062 -0.0340625 4.40328125 -0.953125 4.2890625 C-1.96632813 4.14597656 -1.96632813 4.14597656 -3 4 C-3 3.01 -3 2.02 -3 1 C-2.01 0.67 -1.02 0.34 0 0 Z " fill="#D9667B" transform="translate(286,95)"/>
<path d="M0 0 C1.3921875 0.2784375 1.3921875 0.2784375 2.8125 0.5625 C6.01343771 1.24123881 6.01343771 1.24123881 9 0 C9.66 0.33 10.32 0.66 11 1 C10.67 1.99 10.34 2.98 10 4 C2.25 3.125 2.25 3.125 0 2 C0 1.34 0 0.68 0 0 Z " fill="#E9BEB3" transform="translate(363,90)"/>
<path d="M0 0 C2.87255066 2.42195448 3.70838919 4.59742703 4.6875 8.1875 C4.93886719 9.08855469 5.19023437 9.98960938 5.44921875 10.91796875 C5.63097656 11.60503906 5.81273437 12.29210938 6 13 C5.01 13.495 5.01 13.495 4 14 C3.32471777 12.42032193 2.66010306 10.83608097 2 9.25 C1.62875 8.36828125 1.2575 7.4865625 0.875 6.578125 C0 4 0 4 0 0 Z " fill="#D4516B" transform="translate(209,42)"/>
<path d="M0 0 C0.33 0 0.66 0 1 0 C1 1.98 1 3.96 1 6 C2.65 6 4.3 6 6 6 C5.38125 6.4125 4.7625 6.825 4.125 7.25 C1.93231719 9.05573879 1.07211583 10.4090534 0 13 C-0.33 12.67 -0.66 12.34 -1 12 C-0.90997602 9.97591245 -0.75358962 7.95455713 -0.5625 5.9375 C-0.46066406 4.83277344 -0.35882813 3.72804687 -0.25390625 2.58984375 C-0.17011719 1.73519531 -0.08632813 0.88054688 0 0 Z " fill="#D86079" transform="translate(270,37)"/>
<path d="M0 0 C1 2 2 4 3 6 C2.34 6.99 1.68 7.98 1 9 C-0.4783226 6.04335481 -0.06032783 3.25770263 0 0 Z M-3 7 C-2.01 7.33 -1.02 7.66 0 8 C-1.98 9.32 -3.96 10.64 -6 12 C-6.33 11.01 -6.66 10.02 -7 9 C-5.68 9 -4.36 9 -3 9 C-3 8.34 -3 7.68 -3 7 Z " fill="#DA6B7F" transform="translate(360,81)"/>
<path d="M0 0 C1.875 0.3125 1.875 0.3125 4 1 C6.4294516 4.6441774 6.16179575 6.71241272 6 11 C5.01 11.495 5.01 11.495 4 12 C3.896875 10.7625 3.79375 9.525 3.6875 8.25 C3.26198318 4.7207134 2.51887408 2.62839034 0 0 Z " fill="#D4506C" transform="translate(296,21)"/>
<path d="M0 0 C0 3.3 0 6.6 0 10 C-0.33 10 -0.66 10 -1 10 C-1.33 8.35 -1.66 6.7 -2 5 C-2.99 6.485 -2.99 6.485 -4 8 C-4.99 7.67 -5.98 7.34 -7 7 C-5.83127689 4.66255379 -2.83012032 0 0 0 Z " fill="#D65470" transform="translate(371,170)"/>
<path d="M0 0 C0.99 0.99 1.98 1.98 3 3 C2 5 2 5 -1.0625 6.125 C-2.031875 6.41375 -3.00125 6.7025 -4 7 C-3.43628586 3.73045798 -2.50037734 2.17424117 0 0 Z " fill="#ECD0BF" transform="translate(217,86)"/>
<path d="M0 0 C0.66 0 1.32 0 2 0 C2.9991932 3.10860106 2.83036989 4.88611292 2 8 C2.33 8.66 2.66 9.32 3 10 C1.68 9.67 0.36 9.34 -1 9 C-1.07427838 5.65747276 -1.06546953 3.1964086 0 0 Z " fill="#E6AFA8" transform="translate(354,79)"/>
<path d="M0 0 C1.99260857 1.64606795 2.92515645 2.77546935 3.75 5.25 C4.05788434 8.63672776 3.58915487 11.66145573 3 15 C1 12 1 12 1.0625 8.5625 C0.99609282 4.77729063 0.55755425 3.66411901 -2 1 C-1.34 0.67 -0.68 0.34 0 0 Z " fill="#D75E74" transform="translate(357,73)"/>
<path d="M0 0 C2.475 0.99 2.475 0.99 5 2 C4.67 3.32 4.34 4.64 4 6 C2.68 6 1.36 6 0 6 C0 4.02 0 2.04 0 0 Z " fill="#E9A7B5" transform="translate(397,169)"/>
<path d="M0 0 C1.5625 1.75 1.5625 1.75 3 4 C2.625 6.125 2.625 6.125 2 8 C2.33 8.66 2.66 9.32 3 10 C1.68 9.67 0.36 9.34 -1 9 C-1.125 2.25 -1.125 2.25 0 0 Z " fill="#EBCEBE" transform="translate(270,58)"/>
<path d="M0 0 C2.97 0 5.94 0 9 0 C9.33 1.32 9.66 2.64 10 4 C7.525 3.01 7.525 3.01 5 2 C5 2.66 5 3.32 5 4 C2.525 3.01 2.525 3.01 0 2 C0 1.34 0 0.68 0 0 Z " fill="#E7B6AD" transform="translate(193,41)"/>
<path d="M0 0 C0 2.64 0 5.28 0 8 C-0.33 8 -0.66 8 -1 8 C-1 6.02 -1 4.04 -1 2 C-1.53625 2.33 -2.0725 2.66 -2.625 3 C-5.5391061 4.22699204 -7.86867708 4.14233286 -11 4 C-3.28571429 0 -3.28571429 0 0 0 Z " fill="#D24462" transform="translate(270,36)"/>
<path d="M0 0 C0 0.66 0 1.32 0 2 C0.66 2 1.32 2 2 2 C2 2.66 2 3.32 2 4 C0.02 4.99 0.02 4.99 -2 6 C-2.99 5.34 -3.98 4.68 -5 4 C-4.67 3.01 -4.34 2.02 -4 1 C-2 0 -2 0 0 0 Z " fill="#E8BDB2" transform="translate(245,89)"/>
<path d="M0 0 C2.31 0 4.62 0 7 0 C7 0.99 7 1.98 7 3 C4.69 3 2.38 3 0 3 C0 2.01 0 1.02 0 0 Z " fill="#EAC4B7" transform="translate(306,93)"/>
<path d="M0 0 C0.33 0.66 0.66 1.32 1 2 C3.12576782 2.46651207 3.12576782 2.46651207 5.5625 2.625 C6.38878906 2.69976562 7.21507812 2.77453125 8.06640625 2.8515625 C8.70449219 2.90054688 9.34257812 2.94953125 10 3 C10 3.33 10 3.66 10 4 C6.04 4 2.08 4 -2 4 C-1.34 2.68 -0.68 1.36 0 0 Z " fill="#EBCBBC" transform="translate(256,90)"/>
<path d="M0 0 C0.33 0.66 0.66 1.32 1 2 C2.65 1.67 4.3 1.34 6 1 C5.67 2.65 5.34 4.3 5 6 C3.68 5.67 2.36 5.34 1 5 C0.67 3.35 0.34 1.7 0 0 Z " fill="#D6586F" transform="translate(249,50)"/>
<path d="M0 0 C0 0.66 0 1.32 0 2 C0.99 2.33 1.98 2.66 3 3 C0.09399739 4.25664978 -1.79604584 5 -5 5 C-4.625 3.0625 -4.625 3.0625 -4 1 C-2 0 -2 0 0 0 Z " fill="#E8BBB1" transform="translate(276,44)"/>
<path d="M0 0 C1.5 1.1875 1.5 1.1875 3 3 C3.1875 5.6875 3.1875 5.6875 3 8 C0.24616077 6.62308038 -0.51483101 4.63279958 -2 2 C-1.34 1.34 -0.68 0.68 0 0 Z " fill="#E6B1AA" transform="translate(265,29)"/>
<path d="M0 0 C2.475 0.495 2.475 0.495 5 1 C5 2.65 5 4.3 5 6 C4.01 6 3.02 6 2 6 C0 3 0 3 0 0 Z " fill="#E9C1B5" transform="translate(259,30)"/>
<path d="M0 0 C0.556875 0.928125 0.556875 0.928125 1.125 1.875 C3.48622906 4.5510596 5.60131652 5.0936844 9 6 C6.83032311 6.95465783 5.43671207 7.14401212 3.17578125 6.3984375 C1.4315257 5.64129615 -0.28627131 4.82390802 -2 4 C-1.34 2.68 -0.68 1.36 0 0 Z " fill="#E7B4AC" transform="translate(342,97)"/>
<path d="M0 0 C0.33 0.99 0.66 1.98 1 3 C-3.625 7.875 -3.625 7.875 -7 9 C-5.44499019 5.18315774 -2.96404505 2.80804268 0 0 Z " fill="#D5566E" transform="translate(267,69)"/>
<path d="M0 0 C0.66 0 1.32 0 2 0 C2 0.99 2 1.98 2 3 C2.66 2.34 3.32 1.68 4 1 C4 2.32 4 3.64 4 5 C2.35 5.33 0.7 5.66 -1 6 C-1.042721 4.33388095 -1.04063832 2.66617115 -1 1 C-0.67 0.67 -0.34 0.34 0 0 Z " fill="#D44F69" transform="translate(224,60)"/>
<path d="M0 0 C0.33 1.32 0.66 2.64 1 4 C-0.98 4.99 -0.98 4.99 -3 6 C-3.33 4.35 -3.66 2.7 -4 1 C-2 0 -2 0 0 0 Z " fill="#E8BCB1" transform="translate(209,57)"/>
<path d="M0 0 C0.99 0 1.98 0 3 0 C3 0.99 3 1.98 3 3 C3.66 3 4.32 3 5 3 C5.33 3.99 5.66 4.98 6 6 C5.01 6.33 4.02 6.66 3 7 C0 2.25 0 2.25 0 0 Z " fill="#E8BEB3" transform="translate(202,50)"/>
<path d="M0 0 C1.5 1.375 1.5 1.375 3 3 C3 3.66 3 4.32 3 5 C2.34 5 1.68 5 1 5 C0.67 4.34 0.34 3.68 0 3 C-2.02463255 2.34786708 -2.02463255 2.34786708 -4 2 C-4.33 2.99 -4.66 3.98 -5 5 C-5.33 4.01 -5.66 3.02 -6 2 C-4.02 1.34 -2.04 0.68 0 0 Z " fill="#D75874" transform="translate(301,175)"/>
<path d="M0 0 C2.97 0.33 5.94 0.66 9 1 C9 1.66 9 2.32 9 3 C6.03 2.67 3.06 2.34 0 2 C0 1.34 0 0.68 0 0 Z " fill="#D5536D" transform="translate(252,104)"/>
<path d="M0 0 C1.32 0 2.64 0 4 0 C3.67 1.65 3.34 3.3 3 5 C2.01 5 1.02 5 0 5 C0 3.35 0 1.7 0 0 Z " fill="#E3A2A0" transform="translate(341,67)"/>
<path d="M0 0 C2.475 0.495 2.475 0.495 5 1 C4.67 2.32 4.34 3.64 4 5 C2.68 5 1.36 5 0 5 C0 3.35 0 1.7 0 0 Z " fill="#D4526B" transform="translate(262,43)"/>
<path d="M0 0 C1.32 0.33 2.64 0.66 4 1 C3.67 2.32 3.34 3.64 3 5 C2.01 5 1.02 5 0 5 C0 3.35 0 1.7 0 0 Z " fill="#F2CDD5" transform="translate(242,170)"/>
<path d="M0 0 C0.66 0 1.32 0 2 0 C2 1.98 2 3.96 2 6 C0.68 5.67 -0.64 5.34 -2 5 C-1.34 3.35 -0.68 1.7 0 0 Z " fill="#ECD1C0" transform="translate(357,82)"/>
<path d="M0 0 C1.32 0.33 2.64 0.66 4 1 C3.01 1.495 3.01 1.495 2 2 C2.33 2.99 2.66 3.98 3 5 C1.35 4.67 -0.3 4.34 -2 4 C-1.34 2.68 -0.68 1.36 0 0 Z " fill="#D34B66" transform="translate(273,81)"/>
<path d="M0 0 C3.465 1.98 3.465 1.98 7 4 C7.33 3.34 7.66 2.68 8 2 C7.67 3.32 7.34 4.64 7 6 C2.32307692 4.52307692 2.32307692 4.52307692 0.6875 1.875 C0.460625 1.25625 0.23375 0.6375 0 0 Z " fill="#D24764" transform="translate(197,42)"/>
<path d="M0 0 C0.99 0.33 1.98 0.66 3 1 C0.03 3.475 0.03 3.475 -3 6 C-3.99 5.34 -4.98 4.68 -6 4 C-3.1875 1.9375 -3.1875 1.9375 0 0 Z " fill="#D75C73" transform="translate(291,32)"/>
<path d="M0 0 C0.99 0 1.98 0 3 0 C3 1.65 3 3.3 3 5 C1.68 4.67 0.36 4.34 -1 4 C-0.67 2.68 -0.34 1.36 0 0 Z " fill="#ECD3C1" transform="translate(227,42)"/>
</svg>
